<svg width="97" height="103" viewBox="0 0 97 103" fill="none" xmlns="http://www.w3.org/2000/svg">
<path opacity="0.3" d="M70.5905 62.4663L75.7972 73.967L88.4242 72.6051L79.0151 81.0748L84.2218 92.5754L73.2 86.3093L63.7909 94.779L66.3881 82.4367L55.3663 76.1706L67.9933 74.8087L70.5905 62.4663Z" fill="#FF322E"/>
<path opacity="0.3" d="M8.67343 74.6395L16.6139 78.6559L22.9155 72.4002L21.5214 81.1382L29.4619 85.1546L20.6598 86.5386L19.2657 95.2766L15.2198 87.3939L6.4177 88.7779L12.7193 82.5222L8.67343 74.6395Z" fill="#FF322E"/>
<path opacity="0.3" d="M16.3092 46.4871L26.2408 51.5106L34.1225 43.6863L32.3788 54.6153L42.3104 59.6389L31.3012 61.3698L29.5575 72.2989L24.4971 62.4397L13.4879 64.1706L21.3696 56.3463L16.3092 46.4871Z" fill="#FF322E"/>
<path opacity="0.3" d="M25.6652 84.3582L37.9733 78.134L35.8137 64.5901L45.5802 74.2871L57.8883 68.0629L51.6162 80.2803L61.3827 89.9773L47.7398 87.831L41.4677 100.048L39.3081 86.5045L25.6652 84.3582Z" fill="#FF322E"/>
<path opacity="0.3" d="M59.4628 10.8674L69.485 15.9367L77.4386 8.04103L75.679 19.0698L85.7012 24.1391L74.5915 25.8859L72.8319 36.9146L67.7254 26.9654L56.6158 28.7122L64.5694 20.8165L59.4628 10.8674Z" fill="#FF322E"/>
<path opacity="0.3" d="M64.1582 38.0561L74.1803 43.1254L82.1339 35.2298L80.3743 46.2585L90.3965 51.3278L79.2868 53.0746L77.5273 64.1033L72.4207 54.1542L61.3111 55.9009L69.2647 48.0052L64.1582 38.0561Z" fill="#FF322E"/>
<path opacity="0.3" d="M49.6067 53.9058L54.1871 56.2226L57.8221 52.6141L57.0179 57.6545L61.5983 59.9714L56.5209 60.7697L55.7167 65.8101L53.3829 61.2631L48.3055 62.0614L51.9405 58.4529L49.6067 53.9058Z" fill="#FF322E"/>
<path opacity="0.3" d="M44.9114 38.3697L49.4918 40.6865L53.1268 37.078L52.3226 42.1184L56.903 44.4352L51.8256 45.2336L51.0214 50.274L48.6876 45.7269L43.6102 46.5253L47.2452 42.9167L44.9114 38.3697Z" fill="#FF322E"/>
</svg>
