<svg width="40" height="40" viewBox="0 0 40 40" fill="none" xmlns="http://www.w3.org/2000/svg">
<path d="M21.7658 0.732493C20.7891 -0.244164 19.203 -0.244164 18.2264 0.732493L13.2259 5.73298C12.2492 6.70964 12.2492 8.29573 13.2259 9.27239C14.2026 10.249 15.7887 10.249 16.7653 9.27239L17.4998 8.53794V17.4998H8.53794L9.27239 16.7653C10.249 15.7887 10.249 14.2026 9.27239 13.2259C8.29573 12.2492 6.70964 12.2492 5.73298 13.2259L0.732493 18.2264C-0.244164 19.203 -0.244164 20.7891 0.732493 21.7658L5.73298 26.7663C6.70964 27.7429 8.29573 27.7429 9.27239 26.7663C10.249 25.7896 10.249 24.2035 9.27239 23.2269L8.53794 22.4924H17.4998V31.4621L16.7653 30.7276C15.7887 29.751 14.2026 29.751 13.2259 30.7276C12.2492 31.7043 12.2492 33.2904 13.2259 34.267L18.2264 39.2675C19.203 40.2442 20.7891 40.2442 21.7658 39.2675L26.7663 34.267C27.7429 33.2904 27.7429 31.7043 26.7663 30.7276C25.7896 29.751 24.2035 29.751 23.2269 30.7276L22.4924 31.4621V22.5002H31.4621L30.7276 23.2347C29.751 24.2113 29.751 25.7974 30.7276 26.7741C31.7043 27.7508 33.2904 27.7508 34.267 26.7741L39.2675 21.7736C40.2442 20.797 40.2442 19.2109 39.2675 18.2342L34.267 13.2337C33.2904 12.2571 31.7043 12.2571 30.7276 13.2337C29.751 14.2104 29.751 15.7965 30.7276 16.7731L31.4621 17.5076H22.5002V8.53794L23.2347 9.27239C24.2113 10.249 25.7974 10.249 26.7741 9.27239C27.7508 8.29573 27.7508 6.70964 26.7741 5.73298L21.7736 0.732493H21.7658Z" fill="white"/>
</svg>
