<svg width="32" height="24" viewBox="0 0 32 24" fill="none" xmlns="http://www.w3.org/2000/svg">
<path d="M15.9972 0C11.5087 0 7.91459 1.97143 5.29815 4.31786C2.69838 6.64286 0.959639 9.42857 0.137488 11.3411C-0.0458294 11.7643 -0.0458294 12.2357 0.137488 12.6589C0.959639 14.5714 2.69838 17.3571 5.29815 19.6821C7.91459 22.0286 11.5087 24 15.9972 24C20.4857 24 24.0799 22.0286 26.6963 19.6821C29.2961 17.3518 31.0348 14.5714 31.8625 12.6589C32.0458 12.2357 32.0458 11.7643 31.8625 11.3411C31.0348 9.42857 29.2961 6.64286 26.6963 4.31786C24.0799 1.97143 20.4857 0 15.9972 0ZM7.99792 12C7.99792 9.95404 8.8407 7.99189 10.3409 6.54518C11.841 5.09847 13.8757 4.28571 15.9972 4.28571C18.1188 4.28571 20.1534 5.09847 21.6536 6.54518C23.1537 7.99189 23.9965 9.95404 23.9965 12C23.9965 14.046 23.1537 16.0081 21.6536 17.4548C20.1534 18.9015 18.1188 19.7143 15.9972 19.7143C13.8757 19.7143 11.841 18.9015 10.3409 17.4548C8.8407 16.0081 7.99792 14.046 7.99792 12ZM15.9972 8.57143C15.9972 10.4625 14.4029 12 12.442 12C12.0476 12 11.6698 11.9357 11.3143 11.8232C11.0088 11.7268 10.6532 11.9089 10.6644 12.2196C10.681 12.5893 10.7366 12.9589 10.8421 13.3286C11.6032 16.0714 14.5307 17.7 17.3749 16.9661C20.2191 16.2321 21.9078 13.4089 21.1468 10.6661C20.5302 8.44286 18.4915 6.94821 16.225 6.85714C15.9028 6.84643 15.7139 7.18393 15.8139 7.48393C15.9306 7.82679 15.9972 8.19107 15.9972 8.57143Z" fill="#14133B"/>
</svg>
