<svg width="30" height="24" viewBox="0 0 30 24" fill="none" xmlns="http://www.w3.org/2000/svg">
<path d="M1.81897 0.239321C1.33148 -0.145046 0.623687 -0.0559853 0.239321 0.431504C-0.145046 0.918993 -0.0559853 1.62679 0.431504 2.01116L28.1809 23.7607C28.6684 24.145 29.3762 24.056 29.7605 23.5685C30.1449 23.081 30.0559 22.3732 29.5684 21.9888L24.6372 18.1264C26.4934 16.2233 27.7497 14.0906 28.3825 12.5765C28.5371 12.2062 28.5371 11.7938 28.3825 11.4235C27.684 9.75005 26.2169 7.3126 24.0232 5.27827C21.8201 3.22519 18.7874 1.50023 14.9999 1.50023C11.8031 1.50023 9.14069 2.73302 7.06417 4.35017L1.81897 0.239321ZM10.4578 7.00792C11.6531 5.91576 13.2515 5.25015 14.9999 5.25015C18.7264 5.25015 21.7498 8.27352 21.7498 12C21.7498 13.1672 21.4545 14.264 20.9342 15.2202L19.1248 13.8046C19.5186 12.9 19.6217 11.8641 19.3498 10.8375C18.8295 8.89226 17.1093 7.58447 15.1968 7.50479C14.9249 7.49541 14.7656 7.79072 14.8499 8.05321C14.9484 8.3532 15.0046 8.67195 15.0046 9.00475C15.0046 9.48287 14.8921 9.93286 14.6953 10.3313L10.4625 7.01261L10.4578 7.00792ZM17.4843 18.2764C16.7155 18.5811 15.8765 18.7499 14.9999 18.7499C11.2735 18.7499 8.25008 15.7265 8.25008 12C8.25008 11.6766 8.27352 11.3625 8.31571 11.0531L3.89549 7.57041C2.82676 8.96257 2.06272 10.35 1.61742 11.4235C1.46273 11.7938 1.46273 12.2062 1.61742 12.5765C2.31584 14.25 3.78299 16.6874 5.9767 18.7217C8.17977 20.7748 11.2125 22.4998 14.9999 22.4998C17.2405 22.4998 19.2139 21.8951 20.9154 20.9764L17.4843 18.2764Z" fill="#14133B"/>
</svg>
