<svg width="50" height="60" viewBox="0 0 50 60" fill="none" xmlns="http://www.w3.org/2000/svg">
<mask id="mask0_2_651" style="mask-type:luminance" maskUnits="userSpaceOnUse" x="0" y="0" width="51" height="60">
<path d="M30.8663 30.0045C30.8663 30.1113 30.8564 30.2162 30.8355 30.321C30.8156 30.4259 30.7848 30.5277 30.7451 30.6264C30.7053 30.7241 30.6566 30.8178 30.5989 30.9073C30.5403 30.9959 30.4747 31.0773 30.4011 31.1527C30.3276 31.228 30.2471 31.2962 30.1606 31.3552C30.0741 31.4143 29.9827 31.4641 29.8863 31.5049C29.7899 31.5456 29.6905 31.5771 29.5881 31.5975C29.4857 31.6179 29.3823 31.629 29.278 31.629C29.1746 31.629 29.0712 31.6179 28.9689 31.5975C28.8665 31.5761 28.7671 31.5456 28.6707 31.5049C28.5743 31.4641 28.4828 31.4143 28.3963 31.3542C28.3099 31.2952 28.2294 31.228 28.1558 31.1527C28.0822 31.0773 28.0166 30.9949 27.959 30.9063C27.9004 30.8178 27.8516 30.7241 27.8119 30.6254C27.7721 30.5266 27.7423 30.4249 27.7214 30.32C27.7016 30.2152 27.6916 30.1103 27.6916 30.0034C27.6916 29.8966 27.7016 29.7907 27.7224 29.6869C27.7423 29.582 27.7731 29.4802 27.8129 29.3815C27.8526 29.2828 27.9013 29.1891 27.96 29.1005C28.0176 29.012 28.0832 28.9306 28.1568 28.8552C28.2313 28.7799 28.3109 28.7127 28.3983 28.6527C28.4848 28.5936 28.5762 28.5437 28.6727 28.503C28.7691 28.4623 28.8685 28.4318 28.9708 28.4114C29.0732 28.39 29.1756 28.3799 29.28 28.3799C29.3843 28.3799 29.4877 28.3911 29.5901 28.4114C29.6915 28.4328 29.7909 28.4633 29.8873 28.504C29.9837 28.5448 30.0751 28.5946 30.1616 28.6547C30.2481 28.7137 30.3286 28.7809 30.4021 28.8562C30.4757 28.9316 30.5413 29.014 30.5989 29.1026C30.6566 29.1911 30.7053 29.2848 30.7451 29.3835C30.7848 29.4812 30.8156 29.583 30.8355 29.6879C30.8564 29.7917 30.8663 29.8976 30.8663 30.0045ZM26.1102 31.7339C26.0118 31.7339 25.9154 31.7431 25.819 31.7624C25.7236 31.7828 25.6302 31.8113 25.5397 31.8489C25.4493 31.8876 25.3638 31.9344 25.2823 31.9904C25.2008 32.0454 25.1262 32.1085 25.0566 32.1797C24.9881 32.25 24.9264 32.3273 24.8718 32.4098C24.8171 32.4933 24.7714 32.5808 24.7346 32.6734C24.6968 32.7661 24.669 32.8617 24.6491 32.9595C24.6302 33.0572 24.6213 33.1569 24.6213 33.2567C24.6213 33.3564 24.6312 33.4562 24.6501 33.5539C24.669 33.6516 24.6978 33.7473 24.7346 33.84C24.7724 33.9316 24.8181 34.0201 24.8728 34.1026C24.9274 34.1861 24.9891 34.2624 25.0586 34.3336C25.1272 34.4039 25.2028 34.467 25.2843 34.523C25.3658 34.5779 25.4512 34.6248 25.5417 34.6635C25.6321 34.7011 25.7256 34.7296 25.821 34.749C25.9174 34.7683 26.0138 34.7785 26.1112 34.7775C26.2096 34.7775 26.306 34.7673 26.4025 34.7479C26.4979 34.7276 26.5913 34.6991 26.6808 34.6604C26.7712 34.6217 26.8567 34.5749 26.9382 34.5189C27.0197 34.4629 27.0943 34.3998 27.1628 34.3286C27.2324 34.2573 27.294 34.181 27.3477 34.0975C27.4014 34.014 27.4471 33.9265 27.4849 33.8339C27.5217 33.7412 27.5495 33.6455 27.5684 33.5478C27.5873 33.4491 27.5962 33.3503 27.5962 33.2496C27.5962 33.1498 27.5863 33.0511 27.5674 32.9534C27.5485 32.8556 27.5207 32.761 27.4839 32.6683C27.4461 32.5767 27.4004 32.4882 27.3467 32.4057C27.293 32.3223 27.2314 32.2459 27.1628 32.1747C27.0943 32.1044 27.0187 32.0413 26.9382 31.9853C26.8567 31.9293 26.7722 31.8825 26.6818 31.8438C26.5923 31.8062 26.4989 31.7766 26.4035 31.7573C26.308 31.7369 26.2116 31.7268 26.1142 31.7268L26.1102 31.7339ZM22.9395 35.0808C22.8481 35.0808 22.7576 35.0889 22.6682 35.1073C22.5787 35.1256 22.4922 35.1521 22.4077 35.1877C22.3243 35.2233 22.2437 35.2671 22.1682 35.319C22.0927 35.3709 22.0221 35.4299 21.9575 35.4951C21.8929 35.5613 21.8352 35.6335 21.7845 35.7109C21.7338 35.7882 21.6911 35.8697 21.6563 35.9562C21.6215 36.0427 21.5957 36.1313 21.5778 36.2229C21.5599 36.3135 21.551 36.4061 21.551 36.4998C21.551 36.5924 21.5599 36.685 21.5768 36.7766C21.5947 36.8683 21.6215 36.9568 21.6563 37.0433C21.6911 37.1288 21.7338 37.2113 21.7845 37.2887C21.8352 37.366 21.8929 37.4383 21.9575 37.5034C22.0211 37.5696 22.0917 37.6286 22.1672 37.6806C22.2428 37.7325 22.3233 37.7762 22.4077 37.8119C22.4912 37.8475 22.5787 37.874 22.6682 37.8923C22.7566 37.9106 22.8471 37.9198 22.9385 37.9198C23.03 37.9198 23.1194 37.9106 23.2089 37.8923C23.2983 37.874 23.3858 37.8475 23.4693 37.8119C23.5538 37.7752 23.6333 37.7314 23.7098 37.6795C23.7854 37.6286 23.8549 37.5696 23.9196 37.5034C23.9842 37.4373 24.0418 37.365 24.0925 37.2876C24.1422 37.2103 24.1849 37.1288 24.2197 37.0423C24.2545 36.9558 24.2814 36.8672 24.2992 36.7756C24.3161 36.684 24.3251 36.5914 24.3251 36.4988C24.3261 36.4051 24.3171 36.3125 24.3002 36.2209C24.2824 36.1293 24.2565 36.0397 24.2217 35.9542C24.1869 35.8676 24.1442 35.7852 24.0945 35.7068C24.0438 35.6295 23.9862 35.5572 23.9215 35.491C23.8579 35.4249 23.7874 35.3658 23.7118 35.3139C23.6353 35.262 23.5558 35.2182 23.4713 35.1816C23.3868 35.1459 23.3003 35.1185 23.2109 35.1012C23.1214 35.0828 23.031 35.0737 22.9395 35.0737V35.0808ZM19.7757 38.4185C19.6913 38.4185 19.6078 38.4267 19.5253 38.444C19.4418 38.4603 19.3613 38.4857 19.2837 38.5183C19.2052 38.5519 19.1307 38.5926 19.0611 38.6404C18.9905 38.6883 18.9259 38.7433 18.8653 38.8043C18.8056 38.8654 18.753 38.9316 18.7053 39.0038C18.6585 39.0761 18.6188 39.1514 18.587 39.2319C18.5542 39.3113 18.5303 39.3937 18.5134 39.4792C18.4965 39.5637 18.4886 39.6492 18.4886 39.7357C18.4886 39.8223 18.4965 39.9078 18.5134 39.9922C18.5303 40.0777 18.5542 40.1602 18.587 40.2396C18.6188 40.32 18.6585 40.3953 18.7053 40.4676C18.753 40.5399 18.8056 40.606 18.8653 40.6671C18.9259 40.7282 18.9905 40.7832 19.0611 40.831C19.1307 40.8788 19.2052 40.9196 19.2837 40.9532C19.3613 40.9857 19.4418 41.0112 19.5253 41.0275C19.6078 41.0448 19.6913 41.0529 19.7757 41.0529C19.8602 41.0529 19.9447 41.0448 20.0272 41.0275C20.1097 41.0112 20.1902 40.9857 20.2688 40.9532C20.3463 40.9196 20.4208 40.8788 20.4914 40.831C20.562 40.7832 20.6266 40.7282 20.6862 40.6671C20.7459 40.606 20.7995 40.5399 20.8462 40.4676C20.893 40.3953 20.9327 40.32 20.9655 40.2396C20.9973 40.1602 21.0222 40.0777 21.0391 39.9922C21.055 39.9078 21.0629 39.8223 21.0629 39.7357C21.0629 39.6492 21.055 39.5637 21.0391 39.4792C21.0222 39.3937 20.9973 39.3113 20.9655 39.2319C20.9327 39.1514 20.893 39.0761 20.8462 39.0038C20.7995 38.9316 20.7459 38.8654 20.6862 38.8043C20.6266 38.7433 20.562 38.6883 20.4914 38.6404C20.4208 38.5926 20.3463 38.5519 20.2688 38.5183C20.1902 38.4857 20.1097 38.4603 20.0272 38.444C19.9447 38.4267 19.8602 38.4185 19.7757 38.4185ZM16.606 41.7654C16.5275 41.7654 16.45 41.7726 16.3744 41.7878C16.2979 41.8041 16.2233 41.8265 16.1508 41.8571C16.0792 41.8876 16.0106 41.9253 15.946 41.9701C15.8814 42.0138 15.8208 42.0647 15.7661 42.1207C15.7105 42.1777 15.6618 42.2388 15.618 42.3049C15.5753 42.3711 15.5385 42.4413 15.5087 42.5146C15.4789 42.5889 15.456 42.6643 15.4411 42.7426C15.4262 42.821 15.4182 42.9004 15.4182 42.9798C15.4182 43.0602 15.4262 43.1386 15.4411 43.217C15.456 43.2954 15.4789 43.3717 15.5087 43.445C15.5385 43.5183 15.5753 43.5885 15.618 43.6547C15.6618 43.7209 15.7105 43.783 15.7661 43.8389C15.8208 43.8959 15.8814 43.9458 15.946 43.9906C16.0106 44.0344 16.0792 44.072 16.1508 44.1026C16.2233 44.1331 16.2979 44.1565 16.3744 44.1718C16.45 44.1871 16.5275 44.1952 16.606 44.1952C16.6835 44.1952 16.7611 44.1871 16.8376 44.1718C16.9141 44.1565 16.9877 44.1331 17.0603 44.1026C17.1318 44.072 17.2004 44.0344 17.265 43.9906C17.3296 43.9458 17.3903 43.8959 17.4449 43.8389C17.5006 43.783 17.5493 43.7209 17.593 43.6547C17.6358 43.5885 17.6725 43.5183 17.7024 43.445C17.7322 43.3717 17.755 43.2954 17.7699 43.217C17.7849 43.1386 17.7928 43.0602 17.7928 42.9798C17.7928 42.8994 17.7858 42.821 17.7699 42.7416C17.755 42.6632 17.7322 42.5869 17.7024 42.5136C17.6725 42.4393 17.6358 42.3691 17.592 42.3019C17.5483 42.2357 17.4986 42.1747 17.4429 42.1176C17.3873 42.0617 17.3276 42.0108 17.262 41.967C17.1964 41.9222 17.1278 41.8856 17.0553 41.855C16.9827 41.8245 16.9082 41.8021 16.8316 41.7868C16.7541 41.7716 16.6766 41.7644 16.5981 41.7654H16.606ZM13.4283 45.1103C13.3568 45.1103 13.2862 45.1174 13.2156 45.1317C13.1461 45.1459 13.0775 45.1673 13.0119 45.1948C12.9453 45.2233 12.8827 45.2569 12.823 45.2976C12.7634 45.3383 12.7087 45.3852 12.658 45.4361C12.6073 45.488 12.5626 45.545 12.5228 45.605C12.4831 45.6661 12.4493 45.7302 12.4225 45.7984C12.3946 45.8656 12.3747 45.9348 12.3598 46.0071C12.3459 46.0784 12.339 46.1506 12.339 46.2239C12.339 46.2972 12.3459 46.3695 12.3598 46.4418C12.3747 46.513 12.3946 46.5832 12.4225 46.6504C12.4493 46.7186 12.4831 46.7828 12.5228 46.8428C12.5626 46.9039 12.6073 46.9599 12.658 47.0118C12.7087 47.0637 12.7634 47.1095 12.823 47.1502C12.8827 47.1909 12.9453 47.2255 13.0119 47.254C13.0775 47.2815 13.1461 47.3029 13.2156 47.3172C13.2862 47.3314 13.3568 47.3385 13.4283 47.3385C13.4999 47.3385 13.5705 47.3314 13.6401 47.3172C13.7106 47.3029 13.7792 47.2815 13.8448 47.254C13.9104 47.2255 13.974 47.1909 14.0327 47.1502C14.0923 47.1095 14.147 47.0637 14.1977 47.0118C14.2484 46.9599 14.2941 46.9039 14.3338 46.8428C14.3726 46.7828 14.4064 46.7186 14.4342 46.6504C14.4611 46.5832 14.4819 46.513 14.4959 46.4418C14.5098 46.3695 14.5167 46.2972 14.5167 46.2239C14.5167 46.1506 14.5098 46.0784 14.4959 46.0071C14.4819 45.9348 14.4611 45.8656 14.4342 45.7984C14.4064 45.7302 14.3726 45.6661 14.3338 45.605C14.2941 45.545 14.2484 45.488 14.1977 45.4361C14.147 45.3852 14.0923 45.3383 14.0327 45.2976C13.974 45.2569 13.9104 45.2233 13.8448 45.1948C13.7792 45.1673 13.7106 45.1459 13.6401 45.1317C13.5705 45.1174 13.4999 45.1103 13.4283 45.1103ZM10.2576 48.4572C10.1274 48.4572 10.0012 48.4827 9.87992 48.5336C9.75965 48.5845 9.65329 48.6578 9.56086 48.7524C9.46842 48.8471 9.39685 48.956 9.34715 49.0792C9.29646 49.2034 9.27161 49.3316 9.27161 49.466C9.27161 49.5993 9.29646 49.7286 9.34715 49.8518C9.39685 49.9749 9.46842 50.0849 9.56086 50.1795C9.65329 50.2732 9.75965 50.3465 9.87992 50.3974C10.0012 50.4493 10.1274 50.4747 10.2576 50.4747C10.3888 50.4747 10.5141 50.4493 10.6353 50.3974C10.7556 50.3465 10.8619 50.2732 10.9544 50.1795C11.0468 50.0849 11.1184 49.9749 11.1681 49.8518C11.2188 49.7286 11.2436 49.5993 11.2436 49.466C11.2436 49.3316 11.2188 49.2034 11.1681 49.0792C11.1184 48.956 11.0468 48.8471 10.9544 48.7524C10.8619 48.6578 10.7556 48.5845 10.6353 48.5336C10.5141 48.4827 10.3888 48.4572 10.2576 48.4572ZM7.0869 51.8031C6.96961 51.8031 6.85531 51.8265 6.74696 51.8723C6.63763 51.9192 6.54121 51.9853 6.45772 52.0708C6.37522 52.1563 6.31062 52.254 6.26589 52.366C6.22116 52.478 6.1983 52.594 6.1983 52.7152C6.19929 52.8353 6.22215 52.9513 6.26688 53.0633C6.3126 53.1742 6.37721 53.273 6.4607 53.3575C6.5442 53.443 6.64061 53.5081 6.74995 53.5539C6.85928 53.5997 6.97259 53.6231 7.09087 53.6221C7.20915 53.6221 7.32246 53.5977 7.4318 53.5509C7.54014 53.5051 7.63556 53.4379 7.71905 53.3524C7.80155 53.2669 7.86616 53.1681 7.90989 53.0562C7.95462 52.9442 7.97649 52.8282 7.97649 52.707C7.97549 52.5869 7.95263 52.4719 7.90691 52.3609C7.86119 52.25 7.79658 52.1523 7.71408 52.0678C7.63059 51.9833 7.53418 51.9181 7.42584 51.8723C7.3175 51.8265 7.20418 51.8031 7.0869 51.8031ZM3.91717 55.149C3.81181 55.148 3.71142 55.1683 3.61401 55.2101C3.5176 55.2508 3.43212 55.3088 3.35757 55.3841C3.28302 55.4605 3.22637 55.548 3.18562 55.6468C3.14586 55.7455 3.12499 55.8493 3.12499 55.9562C3.12499 56.0631 3.14486 56.1669 3.18562 56.2657C3.22537 56.3644 3.28203 56.4519 3.35658 56.5283C3.43013 56.6046 3.51561 56.6626 3.61302 56.7044C3.70943 56.7451 3.80982 56.7654 3.91518 56.7654C4.01955 56.7654 4.12093 56.7451 4.21734 56.7044C4.31475 56.6637 4.40023 56.6046 4.47378 56.5293C4.54833 56.4529 4.60499 56.3654 4.64574 56.2667C4.6855 56.1679 4.70538 56.0641 4.70538 55.9572C4.70538 55.8503 4.6855 55.7465 4.64574 55.6478C4.60598 55.549 4.54833 55.4615 4.47478 55.3862C4.40023 55.3098 4.31575 55.2518 4.21834 55.2101C4.12192 55.1694 4.02153 55.149 3.91717 55.149ZM0.747441 58.4949C0.655997 58.4949 0.568528 58.5132 0.483048 58.5488C0.398562 58.5845 0.324015 58.6354 0.259408 58.7015C0.1948 58.7677 0.144109 58.844 0.10932 58.9306C0.0745318 59.0171 0.0566406 59.1067 0.0566406 59.2003C0.0566406 59.2939 0.0735378 59.3845 0.108326 59.4711C0.143115 59.5576 0.192813 59.6339 0.258414 59.7001C0.323021 59.7663 0.397568 59.8182 0.482054 59.8538C0.56654 59.8894 0.654009 59.9078 0.746447 59.9078C0.837891 59.9078 0.925359 59.8894 1.00985 59.8538C1.09433 59.8182 1.16987 59.7673 1.23448 59.7011C1.29909 59.635 1.34878 59.5586 1.38357 59.4721C1.41936 59.3856 1.43625 59.295 1.43625 59.2013C1.43625 59.1077 1.41936 59.0181 1.38457 58.9316C1.34878 58.8451 1.29909 58.7687 1.23448 58.7025C1.17087 58.6364 1.09632 58.5855 1.01183 58.5499C0.927347 58.5132 0.838885 58.4949 0.747441 58.4949ZM35.6592 28.3799C35.5548 28.3799 35.4514 28.39 35.3491 28.4104C35.2467 28.4308 35.1473 28.4613 35.0509 28.502C34.9545 28.5417 34.863 28.5916 34.7756 28.6506C34.6891 28.7097 34.6086 28.7768 34.534 28.8522C34.4605 28.9275 34.3939 29.01 34.3362 29.0985C34.2776 29.1871 34.2289 29.2807 34.1881 29.3784C34.1484 29.4772 34.1176 29.579 34.0977 29.6838C34.0768 29.7876 34.0669 29.8935 34.0659 30.0004C34.0659 30.1073 34.0758 30.2131 34.0957 30.318C34.1166 30.4228 34.1464 30.5236 34.1861 30.6223C34.2259 30.7211 34.2746 30.8157 34.3322 30.9043C34.3899 30.9929 34.4555 31.0753 34.529 31.1506C34.6026 31.226 34.6831 31.2942 34.7696 31.3532C34.8561 31.4132 34.9475 31.4631 35.0439 31.5038C35.1403 31.5446 35.2397 31.5761 35.3421 31.5965C35.4445 31.6179 35.5469 31.628 35.6512 31.629C35.7556 31.629 35.859 31.6189 35.9613 31.5975C36.0637 31.5771 36.1631 31.5466 36.2595 31.5059C36.3559 31.4652 36.4474 31.4143 36.5349 31.3552C36.6213 31.2962 36.7018 31.229 36.7754 31.1537C36.8489 31.0784 36.9145 30.9959 36.9732 30.9073C37.0308 30.8188 37.0795 30.7251 37.1193 30.6264C37.1601 30.5277 37.1899 30.4259 37.2098 30.321C37.2306 30.2172 37.2406 30.1113 37.2406 30.0045C37.2406 29.8976 37.2306 29.7927 37.2098 29.6879C37.1899 29.5841 37.1601 29.4823 37.1203 29.3845C37.0805 29.2858 37.0318 29.1922 36.9742 29.1036C36.9165 29.015 36.8509 28.9336 36.7774 28.8583C36.7038 28.783 36.6243 28.7158 36.5378 28.6557C36.4514 28.5967 36.3609 28.5468 36.2645 28.5061C36.1691 28.4643 36.0697 28.4338 35.9683 28.4124C35.8659 28.3911 35.7635 28.3809 35.6592 28.3799ZM32.4885 31.7268C32.391 31.7268 32.2946 31.7359 32.1982 31.7553C32.1028 31.7746 32.0094 31.8041 31.9189 31.8418C31.8295 31.8805 31.743 31.9273 31.6625 31.9823C31.581 32.0382 31.5054 32.1003 31.4369 32.1716C31.3673 32.2418 31.3056 32.3192 31.251 32.4016C31.1973 32.4851 31.1516 32.5727 31.1138 32.6653C31.076 32.7569 31.0482 32.8526 31.0283 32.9503C31.0094 33.048 31.0005 33.1468 30.9995 33.2475C30.9995 33.3473 31.0094 33.446 31.0283 33.5437C31.0472 33.6425 31.0751 33.7372 31.1128 33.8298C31.1496 33.9224 31.1953 34.01 31.25 34.0934C31.3037 34.1759 31.3653 34.2532 31.4349 34.3235C31.5034 34.3947 31.579 34.4578 31.6595 34.5128C31.741 34.5688 31.8265 34.6156 31.9169 34.6543C32.0074 34.693 32.0998 34.7215 32.1952 34.7408C32.2917 34.7602 32.3881 34.7703 32.4855 34.7703C32.5839 34.7703 32.6803 34.7612 32.7757 34.7418C32.8721 34.7225 32.9646 34.693 33.055 34.6553C33.1455 34.6166 33.2309 34.5698 33.3124 34.5148C33.394 34.4599 33.4685 34.3968 33.5381 34.3255C33.6067 34.2553 33.6693 34.1779 33.7229 34.0955C33.7776 34.012 33.8233 33.9244 33.8611 33.8328C33.8979 33.7402 33.9267 33.6445 33.9456 33.5468C33.9645 33.4491 33.9744 33.3503 33.9744 33.2496C33.9744 33.1498 33.9655 33.0511 33.9466 32.9534C33.9277 32.8546 33.8989 32.76 33.8621 32.6673C33.8243 32.5747 33.7786 32.4872 33.7249 32.4047C33.6703 32.3212 33.6086 32.2439 33.5401 32.1736C33.4705 32.1024 33.3959 32.0393 33.3144 31.9843C33.2339 31.9283 33.1474 31.8815 33.058 31.8428C32.9675 31.8051 32.8741 31.7756 32.7787 31.7563C32.6833 31.7369 32.5859 31.7268 32.4885 31.7268ZM29.3187 35.0737C29.2273 35.0727 29.1368 35.0818 29.0474 35.1001C28.9579 35.1185 28.8714 35.1449 28.787 35.1806C28.7025 35.2162 28.623 35.26 28.5474 35.3119C28.4709 35.3638 28.4013 35.4228 28.3367 35.488C28.2721 35.5541 28.2144 35.6264 28.1638 35.7038C28.1131 35.7811 28.0703 35.8626 28.0355 35.9491C28.0007 36.0346 27.9739 36.1242 27.956 36.2158C27.9381 36.3064 27.9292 36.399 27.9292 36.4926C27.9292 36.5853 27.9381 36.6779 27.956 36.7695C27.9739 36.8611 27.9997 36.9497 28.0355 37.0362C28.0703 37.1217 28.1131 37.2042 28.1638 37.2815C28.2134 37.3589 28.2711 37.4312 28.3357 37.4963C28.4003 37.5625 28.4709 37.6215 28.5464 37.6734C28.622 37.7253 28.7015 37.7691 28.786 37.8047C28.8705 37.8404 28.9569 37.8668 29.0464 37.8852C29.1358 37.9035 29.2263 37.9126 29.3177 37.9126C29.4082 37.9126 29.4986 37.9035 29.5881 37.8852C29.6775 37.8668 29.764 37.8404 29.8485 37.8037C29.933 37.7681 30.0125 37.7243 30.0881 37.6724C30.1636 37.6205 30.2342 37.5625 30.2988 37.4963C30.3634 37.4301 30.42 37.3579 30.4707 37.2805C30.5214 37.2032 30.5642 37.1217 30.5989 37.0352C30.6337 36.9487 30.6606 36.8601 30.6775 36.7685C30.6954 36.6769 30.7043 36.5843 30.7043 36.4916C30.7043 36.398 30.6954 36.3064 30.6775 36.2148C30.6596 36.1231 30.6337 36.0346 30.5989 35.9491C30.5642 35.8626 30.5214 35.7811 30.4707 35.7038C30.42 35.6264 30.3624 35.5541 30.2978 35.489C30.2342 35.4228 30.1636 35.3638 30.0881 35.3119C30.0125 35.261 29.933 35.2172 29.8485 35.1816C29.765 35.1459 29.6775 35.1185 29.5891 35.1001C29.4996 35.0818 29.4092 35.0737 29.3187 35.0737ZM26.148 38.4185C26.0635 38.4185 25.98 38.4267 25.8965 38.444C25.814 38.4603 25.7335 38.4857 25.655 38.5183C25.5775 38.5519 25.5029 38.5926 25.4324 38.6404C25.3628 38.6883 25.2972 38.7433 25.2375 38.8043C25.1779 38.8654 25.1242 38.9316 25.0775 39.0038C25.0308 39.0761 24.991 39.1514 24.9582 39.2319C24.9264 39.3113 24.9016 39.3937 24.8857 39.4792C24.8688 39.5637 24.8608 39.6492 24.8608 39.7357C24.8608 39.8223 24.8688 39.9078 24.8857 39.9922C24.9016 40.0777 24.9264 40.1602 24.9582 40.2396C24.991 40.32 25.0308 40.3953 25.0775 40.4676C25.1242 40.5399 25.1779 40.606 25.2375 40.6671C25.2972 40.7282 25.3628 40.7832 25.4324 40.831C25.5029 40.8788 25.5775 40.9196 25.655 40.9532C25.7335 40.9857 25.814 41.0112 25.8965 41.0275C25.98 41.0448 26.0635 41.0529 26.148 41.0529C26.2325 41.0529 26.316 41.0448 26.3995 41.0275C26.482 41.0112 26.5625 40.9857 26.64 40.9532C26.7185 40.9196 26.7931 40.8788 26.8627 40.831C26.9332 40.7832 26.9988 40.7282 27.0585 40.6671C27.1181 40.606 27.1708 40.5399 27.2185 40.4676C27.2652 40.3953 27.305 40.32 27.3368 40.2396C27.3696 40.1602 27.3944 40.0777 27.4103 39.9922C27.4272 39.9078 27.4352 39.8223 27.4352 39.7357C27.4352 39.6492 27.4272 39.5637 27.4103 39.4792C27.3944 39.3937 27.3696 39.3113 27.3368 39.2319C27.305 39.1514 27.2652 39.0761 27.2185 39.0038C27.1708 38.9316 27.1181 38.8654 27.0585 38.8043C26.9988 38.7433 26.9332 38.6883 26.8627 38.6404C26.7931 38.5926 26.7185 38.5519 26.64 38.5183C26.5625 38.4857 26.482 38.4603 26.3995 38.444C26.316 38.4267 26.2325 38.4185 26.148 38.4185ZM22.9773 41.7654C22.8998 41.7654 22.8222 41.7726 22.7457 41.7878C22.6692 41.8041 22.5946 41.8265 22.523 41.8571C22.4515 41.8876 22.3829 41.9253 22.3173 41.9701C22.2527 42.0138 22.1931 42.0647 22.1374 42.1207C22.0827 42.1777 22.033 42.2388 21.9903 42.3049C21.9466 42.3711 21.9108 42.4413 21.881 42.5146C21.8511 42.5889 21.8283 42.6643 21.8134 42.7426C21.7975 42.821 21.7905 42.9004 21.7905 42.9798C21.7905 43.0602 21.7975 43.1386 21.8134 43.217C21.8283 43.2954 21.8511 43.3717 21.881 43.445C21.9108 43.5183 21.9466 43.5885 21.9903 43.6547C22.033 43.7209 22.0827 43.783 22.1374 43.8389C22.1931 43.8959 22.2527 43.9458 22.3173 43.9906C22.3829 44.0344 22.4515 44.072 22.523 44.1026C22.5946 44.1331 22.6692 44.1565 22.7457 44.1718C22.8222 44.1871 22.8998 44.1952 22.9773 44.1952C23.0558 44.1952 23.1323 44.1871 23.2089 44.1718C23.2854 44.1565 23.36 44.1331 23.4315 44.1026C23.5041 44.072 23.5727 44.0344 23.6373 43.9906C23.7019 43.9458 23.7615 43.8959 23.8172 43.8389C23.8718 43.783 23.9215 43.7209 23.9643 43.6547C24.008 43.5885 24.0448 43.5183 24.0746 43.445C24.1044 43.3717 24.1263 43.2954 24.1422 43.217C24.1571 43.1386 24.1651 43.0602 24.1651 42.9798C24.1651 42.9004 24.1571 42.821 24.1422 42.7426C24.1273 42.6643 24.1044 42.5889 24.0746 42.5146C24.0448 42.4413 24.008 42.3711 23.9653 42.3049C23.9215 42.2388 23.8728 42.1767 23.8172 42.1207C23.7625 42.0637 23.7019 42.0138 23.6373 41.969C23.5727 41.9253 23.5041 41.8876 23.4315 41.8571C23.36 41.8265 23.2854 41.8031 23.2089 41.7878C23.1323 41.7726 23.0558 41.7644 22.9773 41.7654ZM19.8066 45.1103C19.736 45.1103 19.6644 45.1185 19.5949 45.1327C19.5253 45.148 19.4567 45.1694 19.3911 45.1979C19.3255 45.2264 19.2629 45.261 19.2042 45.3017C19.1446 45.3424 19.0899 45.3892 19.0392 45.4411C18.9895 45.4931 18.9448 45.549 18.905 45.6101C18.8663 45.6712 18.8325 45.7363 18.8056 45.8035C18.7788 45.8717 18.7589 45.9409 18.745 46.0132C18.7311 46.0845 18.7251 46.1567 18.7251 46.23C18.7261 46.3033 18.7331 46.3756 18.747 46.4468C18.7619 46.5191 18.7828 46.5883 18.8106 46.6555C18.8375 46.7227 18.8712 46.7868 18.912 46.8479C18.9518 46.908 18.9965 46.9639 19.0472 47.0159C19.0989 47.0668 19.1535 47.1126 19.2132 47.1533C19.2728 47.194 19.3354 47.2276 19.402 47.2551C19.4676 47.2826 19.5362 47.3039 19.6058 47.3182C19.6764 47.3314 19.7469 47.3385 19.8185 47.3385C19.8901 47.3385 19.9606 47.3304 20.0302 47.3161C20.1008 47.3019 20.1684 47.2805 20.234 47.252C20.3006 47.2235 20.3632 47.1889 20.4218 47.1482C20.4815 47.1075 20.5361 47.0617 20.5868 47.0098C20.6365 46.9578 20.6812 46.9008 20.721 46.8408C20.7608 46.7797 20.7936 46.7156 20.8214 46.6474C20.8482 46.5802 20.8691 46.51 20.882 46.4387C20.8959 46.3664 20.9029 46.2942 20.9029 46.2219C20.9029 46.1476 20.8959 46.0753 20.881 46.003C20.8671 45.9318 20.8462 45.8615 20.8184 45.7944C20.7916 45.7262 20.7578 45.662 20.717 45.601C20.6773 45.5399 20.6315 45.4839 20.5809 45.432C20.5302 45.3811 20.4745 45.3353 20.4149 45.2946C20.3552 45.2538 20.2916 45.2203 20.225 45.1918C20.1594 45.1643 20.0908 45.1439 20.0203 45.1297C19.9497 45.1164 19.8791 45.1093 19.8066 45.1103ZM16.6368 48.4572C16.5056 48.4572 16.3804 48.4827 16.2591 48.5336C16.1389 48.5845 16.0315 48.6578 15.9391 48.7524C15.8466 48.8471 15.7761 48.956 15.7254 49.0792C15.6757 49.2034 15.6508 49.3316 15.6508 49.466C15.6508 49.5993 15.6757 49.7286 15.7254 49.8518C15.7761 49.9749 15.8466 50.0849 15.9391 50.1795C16.0315 50.2732 16.1389 50.3465 16.2591 50.3974C16.3804 50.4493 16.5056 50.4747 16.6368 50.4747C16.767 50.4747 16.8933 50.4493 17.0135 50.3974C17.1348 50.3465 17.2412 50.2732 17.3336 50.1795C17.426 50.0849 17.4976 49.9749 17.5473 49.8518C17.597 49.7286 17.6228 49.5993 17.6228 49.466C17.6228 49.3316 17.597 49.2034 17.5473 49.0792C17.4976 48.956 17.426 48.8471 17.3336 48.7524C17.2412 48.6578 17.1348 48.5845 17.0135 48.5336C16.8933 48.4827 16.767 48.4572 16.6368 48.4572ZM13.4661 51.8031C13.3478 51.8031 13.2345 51.8265 13.1262 51.8723C13.0168 51.9192 12.9214 51.9843 12.8379 52.0698C12.7544 52.1553 12.6898 52.253 12.6451 52.365C12.6004 52.476 12.5775 52.592 12.5775 52.7131C12.5775 52.8332 12.6004 52.9493 12.6451 53.0613C12.6898 53.1722 12.7544 53.2709 12.8379 53.3554C12.9214 53.4409 13.0168 53.5071 13.1262 53.5529C13.2345 53.5987 13.3478 53.6221 13.4661 53.6221C13.5844 53.6221 13.6977 53.5987 13.806 53.5529C13.9154 53.5071 14.0108 53.4409 14.0943 53.3554C14.1778 53.2709 14.2424 53.1722 14.2871 53.0613C14.3318 52.9493 14.3547 52.8332 14.3547 52.7131C14.3547 52.592 14.3318 52.476 14.2871 52.365C14.2424 52.253 14.1778 52.1553 14.0943 52.0698C14.0108 51.9843 13.9154 51.9192 13.806 51.8723C13.6977 51.8265 13.5844 51.8031 13.4661 51.8031ZM10.2954 55.149C10.191 55.149 10.0906 55.1694 9.99323 55.2101C9.89681 55.2508 9.81133 55.3098 9.73679 55.3852C9.66323 55.4615 9.60558 55.549 9.56583 55.6478C9.52607 55.7465 9.50519 55.8503 9.50519 55.9572C9.50519 56.0641 9.52607 56.1679 9.56583 56.2667C9.60558 56.3654 9.66323 56.4529 9.73679 56.5293C9.81133 56.6046 9.89681 56.6626 9.99323 56.7044C10.0906 56.7451 10.191 56.7654 10.2954 56.7654C10.4007 56.7654 10.5011 56.7451 10.5985 56.7044C10.695 56.6626 10.7804 56.6046 10.854 56.5293C10.9285 56.4529 10.9852 56.3654 11.0259 56.2667C11.0657 56.1679 11.0856 56.0641 11.0856 55.9572C11.0856 55.8503 11.0657 55.7465 11.0259 55.6478C10.9852 55.549 10.9285 55.4615 10.854 55.3852C10.7804 55.3098 10.695 55.2508 10.5985 55.2101C10.5011 55.1694 10.4007 55.149 10.2954 55.149ZM7.12666 58.4949C7.03521 58.4949 6.94675 58.5132 6.86226 58.5488C6.77778 58.5845 6.70323 58.6354 6.63862 58.7015C6.57302 58.7677 6.52332 58.844 6.48853 58.9306C6.45275 59.0171 6.43486 59.1067 6.43486 59.2003C6.43486 59.2939 6.45275 59.3845 6.48754 59.4711C6.52233 59.5576 6.57203 59.6339 6.63663 59.7001C6.70124 59.7663 6.77579 59.8182 6.86027 59.8538C6.94476 59.8894 7.03322 59.9078 7.12467 59.9078C7.21611 59.9078 7.30457 59.8894 7.38906 59.8538C7.47355 59.8182 7.54809 59.7673 7.6127 59.7011C7.6783 59.635 7.728 59.5586 7.76279 59.4721C7.79758 59.3856 7.81547 59.295 7.81547 59.2013C7.81547 59.1077 7.79758 59.0181 7.76279 58.9316C7.728 58.8451 7.6783 58.7687 7.61369 58.7025C7.54909 58.6364 7.47454 58.5855 7.39005 58.5499C7.30557 58.5132 7.2181 58.4949 7.12666 58.4949ZM42.0364 28.3799C41.932 28.3799 41.8287 28.39 41.7273 28.4114C41.6249 28.4318 41.5255 28.4633 41.4291 28.504C41.3327 28.5448 41.2412 28.5946 41.1548 28.6537C41.0683 28.7127 40.9878 28.7799 40.9142 28.8562C40.8407 28.9316 40.7751 29.013 40.7164 29.1016C40.6588 29.1901 40.6101 29.2838 40.5703 29.3825C40.5306 29.4812 40.4997 29.583 40.4799 29.6879C40.459 29.7917 40.4491 29.8976 40.4491 30.0045C40.4491 30.1113 40.459 30.2162 40.4799 30.321C40.4997 30.4259 40.5306 30.5277 40.5703 30.6264C40.6101 30.7241 40.6588 30.8178 40.7164 30.9063C40.7751 30.9959 40.8407 31.0773 40.9142 31.1527C40.9878 31.228 41.0683 31.2952 41.1548 31.3552C41.2412 31.4143 41.3327 31.4641 41.4291 31.5049C41.5255 31.5456 41.6249 31.5761 41.7273 31.5975C41.8287 31.6179 41.932 31.629 42.0364 31.629C42.1408 31.629 42.2441 31.6179 42.3465 31.5975C42.4489 31.5761 42.5473 31.5456 42.6437 31.5049C42.7401 31.4641 42.8316 31.4143 42.918 31.3552C43.0055 31.2952 43.085 31.228 43.1586 31.1527C43.2331 31.0773 43.2987 30.9959 43.3564 30.9063C43.414 30.8178 43.4627 30.7241 43.5035 30.6264C43.5432 30.5277 43.5731 30.4259 43.5929 30.321C43.6138 30.2162 43.6238 30.1113 43.6238 30.0045C43.6238 29.8976 43.6138 29.7917 43.5929 29.6879C43.5731 29.583 43.5432 29.4812 43.5035 29.3825C43.4627 29.2838 43.414 29.1901 43.3564 29.1016C43.2987 29.013 43.2331 28.9316 43.1586 28.8562C43.085 28.7799 43.0055 28.7127 42.918 28.6537C42.8316 28.5946 42.7401 28.5448 42.6437 28.504C42.5473 28.4633 42.4489 28.4318 42.3465 28.4114C42.2441 28.39 42.1408 28.3799 42.0364 28.3799ZM38.8677 31.7268C38.7703 31.7268 38.6729 31.7359 38.5774 31.7553C38.482 31.7746 38.3886 31.8041 38.2981 31.8418C38.2077 31.8805 38.1222 31.9273 38.0407 31.9823C37.9602 32.0382 37.8846 32.1003 37.8151 32.1716C37.7465 32.2418 37.6849 32.3192 37.6302 32.4016C37.5755 32.4851 37.5298 32.5727 37.493 32.6653C37.4553 32.7569 37.4264 32.8526 37.4076 32.9503C37.3887 33.048 37.3787 33.1468 37.3787 33.2475C37.3787 33.3473 37.3887 33.446 37.4076 33.5437C37.4264 33.6425 37.4543 33.7372 37.491 33.8298C37.5288 33.9224 37.5745 34.01 37.6292 34.0934C37.6829 34.1759 37.7445 34.2532 37.8131 34.3235C37.8827 34.3947 37.9572 34.4578 38.0387 34.5128C38.1202 34.5688 38.2057 34.6156 38.2961 34.6543C38.3856 34.693 38.479 34.7215 38.5745 34.7408C38.6699 34.7602 38.7673 34.7703 38.8647 34.7703C38.9621 34.7703 39.0595 34.7612 39.1549 34.7418C39.2503 34.7225 39.3438 34.693 39.4342 34.6553C39.5247 34.6166 39.6102 34.5698 39.6917 34.5148C39.7722 34.4599 39.8477 34.3968 39.9173 34.3255C39.9859 34.2553 40.0475 34.1779 40.1022 34.0955C40.1568 34.012 40.2026 33.9244 40.2393 33.8328C40.2771 33.7402 40.3059 33.6445 40.3248 33.5468C40.3437 33.4491 40.3536 33.3503 40.3536 33.2496C40.3536 33.1498 40.3437 33.0511 40.3248 32.9534C40.3059 32.8546 40.2781 32.76 40.2403 32.6673C40.2035 32.5747 40.1578 32.4872 40.1032 32.4047C40.0495 32.3212 39.9879 32.2439 39.9193 32.1736C39.8497 32.1024 39.7752 32.0393 39.6936 31.9843C39.6121 31.9283 39.5267 31.8815 39.4362 31.8428C39.3468 31.8051 39.2533 31.7756 39.1579 31.7563C39.0615 31.7369 38.9651 31.7268 38.8677 31.7268ZM35.692 35.0737C35.6005 35.0727 35.5101 35.0818 35.4206 35.1001C35.3312 35.1185 35.2447 35.1449 35.1602 35.1806C35.0757 35.2162 34.9962 35.26 34.9207 35.3119C34.8441 35.3638 34.7746 35.4228 34.7099 35.488C34.6453 35.5541 34.5877 35.6264 34.537 35.7038C34.4863 35.7811 34.4436 35.8626 34.4088 35.9491C34.374 36.0346 34.3472 36.1242 34.3293 36.2158C34.3114 36.3064 34.3024 36.399 34.3024 36.4926C34.3024 36.5853 34.3114 36.6779 34.3293 36.7695C34.3472 36.8611 34.373 36.9497 34.4078 37.0362C34.4436 37.1217 34.4863 37.2042 34.537 37.2815C34.5867 37.3589 34.6443 37.4312 34.709 37.4963C34.7736 37.5625 34.8441 37.6215 34.9197 37.6734C34.9952 37.7253 35.0747 37.7691 35.1592 37.8047C35.2437 37.8404 35.3302 37.8668 35.4196 37.8852C35.5091 37.9035 35.5995 37.9126 35.691 37.9126C35.7814 37.9126 35.8719 37.9035 35.9613 37.8852C36.0508 37.8668 36.1373 37.8404 36.2218 37.8037C36.3062 37.7681 36.3858 37.7243 36.4613 37.6724C36.5368 37.6205 36.6074 37.5625 36.672 37.4963C36.7366 37.4301 36.7933 37.3579 36.844 37.2805C36.8947 37.2032 36.9374 37.1217 36.9722 37.0352C37.007 36.9487 37.0328 36.8601 37.0507 36.7685C37.0686 36.6769 37.0776 36.5843 37.0776 36.4916C37.0776 36.398 37.0686 36.3064 37.0507 36.2148C37.0328 36.1231 37.007 36.0346 36.9722 35.9491C36.9374 35.8626 36.8947 35.7811 36.844 35.7038C36.7933 35.6264 36.7356 35.5541 36.671 35.489C36.6074 35.4228 36.5368 35.3638 36.4613 35.3119C36.3858 35.261 36.3062 35.2172 36.2218 35.1816C36.1383 35.1459 36.0508 35.1185 35.9623 35.1001C35.8729 35.0818 35.7824 35.0737 35.692 35.0737ZM32.5213 38.4185C32.4368 38.4185 32.3533 38.4267 32.2698 38.444C32.1873 38.4603 32.1068 38.4857 32.0283 38.5183C31.9507 38.5519 31.8762 38.5926 31.8056 38.6404C31.736 38.6883 31.6704 38.7433 31.6108 38.8043C31.5512 38.8654 31.4975 38.9316 31.4508 39.0038C31.4041 39.0761 31.3643 39.1514 31.3315 39.2319C31.2997 39.3113 31.2748 39.3937 31.2589 39.4792C31.242 39.5637 31.2341 39.6492 31.2341 39.7357C31.2341 39.8223 31.242 39.9078 31.2589 39.9922C31.2748 40.0777 31.2997 40.1602 31.3315 40.2396C31.3643 40.32 31.4041 40.3953 31.4508 40.4676C31.4975 40.5399 31.5512 40.606 31.6108 40.6671C31.6704 40.7282 31.736 40.7832 31.8056 40.831C31.8762 40.8788 31.9507 40.9196 32.0283 40.9532C32.1068 40.9857 32.1873 41.0112 32.2698 41.0275C32.3533 41.0448 32.4368 41.0529 32.5213 41.0529C32.6057 41.0529 32.6892 41.0448 32.7717 41.0275C32.8552 41.0112 32.9357 40.9857 33.0133 40.9532C33.0918 40.9196 33.1663 40.8788 33.2359 40.831C33.3065 40.7832 33.3711 40.7282 33.4317 40.6671C33.4914 40.606 33.544 40.5399 33.5918 40.4676C33.6385 40.3953 33.6782 40.32 33.71 40.2396C33.7428 40.1602 33.7667 40.0777 33.7836 39.9922C33.8005 39.9078 33.8084 39.8223 33.8084 39.7357C33.8084 39.6492 33.8005 39.5637 33.7836 39.4792C33.7677 39.3947 33.7428 39.3123 33.711 39.2329C33.6792 39.1535 33.6395 39.0771 33.5927 39.0059C33.546 38.9336 33.4924 38.8674 33.4337 38.8064C33.3741 38.7453 33.3095 38.6903 33.2389 38.6425C33.1693 38.5946 33.0958 38.5539 33.0172 38.5203C32.9397 38.4867 32.8592 38.4623 32.7767 38.445C32.6942 38.4277 32.6107 38.4185 32.5262 38.4185H32.5213ZM29.3535 41.7654C29.276 41.7654 29.1985 41.7726 29.1219 41.7878C29.0454 41.8041 28.9708 41.8265 28.8993 41.8571C28.8267 41.8876 28.7591 41.9253 28.6935 41.9701C28.6289 42.0138 28.5693 42.0647 28.5136 42.1207C28.459 42.1777 28.4093 42.2388 28.3665 42.3049C28.3228 42.3711 28.286 42.4413 28.2562 42.5146C28.2264 42.5889 28.2045 42.6643 28.1886 42.7426C28.1737 42.821 28.1657 42.9004 28.1657 42.9798C28.1657 43.0602 28.1737 43.1386 28.1886 43.217C28.2045 43.2954 28.2264 43.3717 28.2562 43.445C28.286 43.5183 28.3228 43.5885 28.3665 43.6547C28.4093 43.7209 28.459 43.783 28.5136 43.8389C28.5693 43.8959 28.6289 43.9458 28.6935 43.9906C28.7591 44.0344 28.8267 44.072 28.8993 44.1026C28.9708 44.1331 29.0454 44.1565 29.1219 44.1718C29.1985 44.1871 29.276 44.1952 29.3535 44.1952C29.431 44.1952 29.5086 44.1871 29.5851 44.1718C29.6616 44.1565 29.7362 44.1331 29.8078 44.1026C29.8803 44.072 29.9479 44.0344 30.0135 43.9906C30.0781 43.9458 30.1377 43.8959 30.1934 43.8389C30.2481 43.783 30.2978 43.7209 30.3405 43.6547C30.3843 43.5885 30.421 43.5183 30.4508 43.445C30.4807 43.3717 30.5025 43.2954 30.5184 43.217C30.5333 43.1386 30.5403 43.0602 30.5403 42.9798C30.5413 42.9004 30.5333 42.821 30.5184 42.7426C30.5035 42.6643 30.4807 42.5889 30.4508 42.5146C30.421 42.4413 30.3843 42.3711 30.3415 42.3049C30.2978 42.2378 30.2491 42.1767 30.1934 42.1207C30.1387 42.0637 30.0781 42.0138 30.0135 41.969C29.9489 41.9253 29.8803 41.8876 29.8078 41.8571C29.7362 41.8265 29.6616 41.8031 29.5851 41.7878C29.5086 41.7726 29.431 41.7644 29.3535 41.7654ZM26.1828 45.1103C26.1112 45.1103 26.0407 45.1174 25.9711 45.1317C25.9005 45.1459 25.8329 45.1673 25.7663 45.1948C25.7007 45.2233 25.6381 45.2569 25.5785 45.2976C25.5188 45.3383 25.4642 45.3852 25.4135 45.4361C25.3628 45.488 25.3171 45.545 25.2783 45.605C25.2385 45.6661 25.2047 45.7302 25.1769 45.7974C25.1501 45.8656 25.1292 45.9348 25.1153 46.0071C25.1014 46.0784 25.0944 46.1506 25.0944 46.2239C25.0944 46.2972 25.1014 46.3695 25.1153 46.4418C25.1292 46.513 25.1501 46.5832 25.1769 46.6504C25.2047 46.7186 25.2385 46.7828 25.2773 46.8428C25.3171 46.9039 25.3628 46.9599 25.4135 47.0118C25.4642 47.0637 25.5188 47.1095 25.5785 47.1502C25.6381 47.1909 25.7007 47.2255 25.7663 47.254C25.8329 47.2815 25.9005 47.3029 25.9711 47.3172C26.0407 47.3314 26.1112 47.3385 26.1828 47.3385C26.2544 47.3385 26.3249 47.3314 26.3955 47.3172C26.4651 47.3029 26.5337 47.2815 26.5993 47.254C26.6659 47.2255 26.7285 47.1909 26.7881 47.1502C26.8478 47.1095 26.9024 47.0637 26.9531 47.0118C27.0038 46.9599 27.0485 46.9039 27.0883 46.8428C27.128 46.7828 27.1618 46.7186 27.1887 46.6504C27.2165 46.5832 27.2374 46.513 27.2513 46.4418C27.2652 46.3695 27.2722 46.2972 27.2722 46.2239C27.2722 46.1516 27.2652 46.0784 27.2513 46.0071C27.2374 45.9358 27.2165 45.8656 27.1897 45.7984C27.1618 45.7312 27.129 45.6671 27.0893 45.606C27.0495 45.545 27.0048 45.489 26.9541 45.4371C26.9034 45.3852 26.8487 45.3393 26.7901 45.2986C26.7305 45.2579 26.6678 45.2233 26.6022 45.1958C26.5357 45.1673 26.4681 45.1459 26.3975 45.1317C26.3279 45.1174 26.2573 45.1103 26.1858 45.1103H26.1828ZM23.0151 48.4572C22.8848 48.4572 22.7586 48.4827 22.6383 48.5336C22.5171 48.5845 22.4107 48.6578 22.3183 48.7524C22.2259 48.8471 22.1543 48.956 22.1046 49.0792C22.0549 49.2034 22.0291 49.3316 22.0291 49.466C22.0291 49.5993 22.0549 49.7286 22.1046 49.8518C22.1543 49.9749 22.2259 50.0849 22.3183 50.1795C22.4107 50.2732 22.5171 50.3465 22.6383 50.3974C22.7586 50.4493 22.8848 50.4747 23.0151 50.4747C23.1463 50.4747 23.2715 50.4493 23.3928 50.3974C23.513 50.3465 23.6204 50.2732 23.7128 50.1795C23.8053 50.0849 23.8758 49.9749 23.9265 49.8518C23.9762 49.7286 24.0011 49.5993 24.0011 49.466C24.0011 49.3316 23.9762 49.2034 23.9265 49.0792C23.8758 48.956 23.8053 48.8471 23.7128 48.7524C23.6204 48.6578 23.513 48.5845 23.3928 48.5336C23.2715 48.4827 23.1463 48.4572 23.0151 48.4572ZM19.8453 51.8031C19.727 51.8031 19.6137 51.8265 19.5044 51.8723C19.3951 51.9192 19.2996 51.9853 19.2162 52.0708C19.1327 52.1563 19.0681 52.254 19.0233 52.366C18.9786 52.478 18.9557 52.594 18.9567 52.7152C18.9567 52.8353 18.9796 52.9513 19.0253 53.0633C19.07 53.1742 19.1346 53.273 19.2181 53.3575C19.3026 53.443 19.399 53.5081 19.5084 53.5539C19.6167 53.5997 19.731 53.6231 19.8493 53.6221C19.9666 53.6221 20.0799 53.5977 20.1892 53.5519C20.2976 53.5051 20.394 53.4379 20.4765 53.3524C20.56 53.2669 20.6236 53.1681 20.6683 53.0562C20.7131 52.9442 20.7349 52.8282 20.7339 52.707C20.7329 52.5869 20.7101 52.4719 20.6643 52.3609C20.6186 52.25 20.555 52.1523 20.4715 52.0678C20.388 51.9833 20.2926 51.9181 20.1843 51.8723C20.0749 51.8265 19.9626 51.8031 19.8453 51.8031ZM16.6776 55.149C16.5722 55.149 16.4718 55.1694 16.3754 55.2101C16.278 55.2508 16.1925 55.3098 16.119 55.3852C16.0444 55.4615 15.9878 55.549 15.947 55.6478C15.9073 55.7465 15.8874 55.8503 15.8874 55.9572C15.8874 56.0641 15.9073 56.1679 15.947 56.2667C15.9878 56.3654 16.0444 56.4529 16.119 56.5293C16.1925 56.6046 16.278 56.6626 16.3754 56.7044C16.4718 56.7451 16.5722 56.7654 16.6776 56.7654C16.782 56.7654 16.8833 56.7451 16.9797 56.7044C17.0762 56.6626 17.1616 56.6046 17.2362 56.5293C17.3097 56.4529 17.3674 56.3654 17.4072 56.2667C17.4479 56.1679 17.4678 56.0641 17.4678 55.9572C17.4678 55.8503 17.4479 55.7465 17.4072 55.6478C17.3674 55.549 17.3097 55.4615 17.2362 55.3852C17.1616 55.3098 17.0762 55.2508 16.9797 55.2101C16.8833 55.1694 16.782 55.149 16.6776 55.149ZM13.5089 58.4949C13.4164 58.4949 13.3289 58.5132 13.2445 58.5488C13.159 58.5845 13.0844 58.6354 13.0198 58.7015C12.9552 58.7677 12.9045 58.844 12.8697 58.9306C12.8349 59.0171 12.8171 59.1067 12.8171 59.2003C12.8171 59.2939 12.834 59.3845 12.8687 59.4711C12.9035 59.5576 12.9542 59.6339 13.0188 59.7001C13.0834 59.7663 13.158 59.8182 13.2425 59.8538C13.327 59.8894 13.4154 59.9078 13.5069 59.9078C13.5983 59.9078 13.6858 59.8894 13.7713 59.8538C13.8557 59.8182 13.9303 59.7673 13.9949 59.7011C14.0595 59.635 14.1092 59.5586 14.145 59.4721C14.1798 59.3856 14.1967 59.295 14.1967 59.2013C14.1967 59.1077 14.1798 59.0171 14.144 58.9306C14.1092 58.844 14.0595 58.7677 13.9949 58.7015C13.9293 58.6354 13.8547 58.5845 13.7703 58.5488C13.6858 58.5132 13.5973 58.4949 13.5059 58.4949H13.5089ZM48.4156 28.3799C48.3113 28.3799 48.2079 28.39 48.1055 28.4114C48.0031 28.4318 47.9047 28.4633 47.8083 28.504C47.7119 28.5448 47.6205 28.5946 47.534 28.6537C47.4465 28.7127 47.367 28.7799 47.2934 28.8562C47.2189 28.9316 47.1533 29.013 47.0956 29.1016C47.038 29.1901 46.9893 29.2838 46.9485 29.3825C46.9088 29.4812 46.879 29.583 46.8591 29.6879C46.8382 29.7917 46.8283 29.8976 46.8283 30.0045C46.8283 30.1113 46.8382 30.2162 46.8591 30.321C46.879 30.4259 46.9088 30.5277 46.9485 30.6264C46.9893 30.7241 47.038 30.8178 47.0956 30.9063C47.1533 30.9959 47.2189 31.0773 47.2934 31.1527C47.367 31.228 47.4465 31.2952 47.534 31.3552C47.6205 31.4143 47.7119 31.4641 47.8083 31.5049C47.9047 31.5456 48.0031 31.5761 48.1055 31.5975C48.2079 31.6179 48.3113 31.629 48.4156 31.629C48.52 31.629 48.6234 31.6179 48.7247 31.5975C48.8271 31.5761 48.9265 31.5456 49.0229 31.5049C49.1193 31.4641 49.2108 31.4143 49.2973 31.3552C49.3837 31.2952 49.4642 31.228 49.5378 31.1527C49.6114 31.0773 49.677 30.9959 49.7356 30.9063C49.7932 30.8178 49.8419 30.7241 49.8817 30.6264C49.9215 30.5277 49.9523 30.4259 49.9722 30.321C49.993 30.2162 50.003 30.1113 50.003 30.0045C50.003 29.8976 49.993 29.7917 49.9722 29.6879C49.9523 29.583 49.9215 29.4812 49.8817 29.3825C49.8419 29.2838 49.7932 29.1901 49.7356 29.1016C49.677 29.013 49.6114 28.9316 49.5378 28.8562C49.4642 28.7799 49.3837 28.7127 49.2973 28.6537C49.2108 28.5946 49.1193 28.5448 49.0229 28.504C48.9265 28.4633 48.8271 28.4318 48.7247 28.4114C48.6234 28.39 48.52 28.3799 48.4156 28.3799ZM45.2469 31.7268C45.1485 31.7268 45.0521 31.7359 44.9566 31.7553C44.8602 31.7746 44.7678 31.8041 44.6773 31.8418C44.5869 31.8805 44.5014 31.9273 44.4199 31.9823C44.3384 32.0382 44.2639 32.1003 44.1943 32.1716C44.1247 32.2418 44.0631 32.3192 44.0094 32.4016C43.9547 32.4851 43.909 32.5727 43.8713 32.6653C43.8345 32.7569 43.8056 32.8526 43.7868 32.9503C43.7679 33.048 43.7579 33.1468 43.7579 33.2475C43.7579 33.3473 43.7669 33.446 43.7858 33.5437C43.8047 33.6425 43.8335 33.7372 43.8703 33.8298C43.908 33.9224 43.9538 34.01 44.0074 34.0934C44.0621 34.1759 44.1237 34.2532 44.1923 34.3235C44.2609 34.3947 44.3364 34.4578 44.4179 34.5128C44.4984 34.5688 44.5839 34.6156 44.6744 34.6543C44.7648 34.693 44.8573 34.7215 44.9537 34.7408C45.0491 34.7602 45.1455 34.7703 45.2439 34.7703C45.3413 34.7703 45.4377 34.7612 45.5341 34.7418C45.6296 34.7225 45.723 34.693 45.8124 34.6553C45.9029 34.6166 45.9894 34.5698 46.0699 34.5148C46.1514 34.4599 46.2269 34.3968 46.2955 34.3255C46.3651 34.2553 46.4267 34.1779 46.4814 34.0955C46.5351 34.012 46.5808 33.9244 46.6185 33.8328C46.6563 33.7402 46.6841 33.6445 46.703 33.5468C46.7229 33.4491 46.7319 33.3503 46.7319 33.2496C46.7329 33.1498 46.7229 33.0511 46.704 32.9534C46.6851 32.8546 46.6573 32.76 46.6195 32.6673C46.5828 32.5747 46.537 32.4872 46.4824 32.4047C46.4287 32.3212 46.3671 32.2439 46.2975 32.1736C46.2289 32.1024 46.1534 32.0393 46.0729 31.9843C45.9914 31.9283 45.9059 31.8815 45.8154 31.8428C45.725 31.8051 45.6325 31.7756 45.5361 31.7563C45.4407 31.7369 45.3443 31.7268 45.2469 31.7268ZM42.0762 35.0737C41.9847 35.0727 41.8943 35.0818 41.8048 35.1001C41.7154 35.1185 41.6289 35.1449 41.5444 35.1806C41.4609 35.2162 41.3804 35.26 41.3049 35.3119C41.2293 35.3638 41.1587 35.4228 41.0941 35.488C41.0295 35.5541 40.9719 35.6264 40.9212 35.7038C40.8705 35.7811 40.8278 35.8626 40.793 35.9491C40.7582 36.0346 40.7323 36.1242 40.7144 36.2158C40.6966 36.3064 40.6876 36.399 40.6876 36.4926C40.6876 36.5853 40.6966 36.6779 40.7135 36.7695C40.7313 36.8611 40.7582 36.9497 40.793 37.0362C40.8278 37.1217 40.8705 37.2042 40.9212 37.2815C40.9719 37.3589 41.0295 37.4312 41.0931 37.4963C41.1577 37.5625 41.2283 37.6215 41.3039 37.6734C41.3794 37.7253 41.4599 37.7691 41.5444 37.8047C41.6279 37.8404 41.7154 37.8668 41.8038 37.8852C41.8933 37.9035 41.9837 37.9126 42.0752 37.9126C42.1666 37.9126 42.2561 37.9035 42.3455 37.8852C42.435 37.8668 42.5225 37.8404 42.6059 37.8037C42.6904 37.7681 42.7699 37.7243 42.8465 37.6724C42.922 37.6205 42.9916 37.5625 43.0562 37.4963C43.1208 37.4301 43.1785 37.3579 43.2292 37.2805C43.2789 37.2032 43.3216 37.1217 43.3564 37.0352C43.3912 36.9487 43.418 36.8601 43.4359 36.7685C43.4528 36.6769 43.4617 36.5843 43.4617 36.4916C43.4617 36.398 43.4528 36.3064 43.4349 36.2148C43.418 36.1231 43.3912 36.0346 43.3564 35.9491C43.3216 35.8626 43.2789 35.7811 43.2282 35.7038C43.1775 35.6264 43.1208 35.5541 43.0562 35.489C42.9916 35.4228 42.922 35.3638 42.8455 35.3119C42.7699 35.261 42.6904 35.2172 42.6059 35.1816C42.5225 35.1459 42.436 35.1185 42.3465 35.1001C42.2571 35.0818 42.1666 35.0737 42.0762 35.0737ZM38.9054 38.4185C38.821 38.4185 38.7375 38.4277 38.655 38.445C38.5725 38.4623 38.492 38.4878 38.4134 38.5203C38.3359 38.5539 38.2624 38.5946 38.1918 38.6435C38.1222 38.6913 38.0576 38.7463 37.998 38.8074C37.9383 38.8685 37.8846 38.9356 37.8379 39.0079C37.7912 39.0792 37.7525 39.1555 37.7206 39.2359C37.6878 39.3153 37.664 39.3978 37.6481 39.4823C37.6312 39.5678 37.6232 39.6533 37.6242 39.7398C37.6242 39.8263 37.6322 39.9118 37.6491 39.9963C37.666 40.0808 37.6908 40.1632 37.7236 40.2426C37.7554 40.3231 37.7952 40.3984 37.8429 40.4707C37.8896 40.5419 37.9433 40.6081 38.0029 40.6692C38.0626 40.7302 38.1282 40.7842 38.1977 40.832C38.2683 40.8799 38.3429 40.9206 38.4204 40.9532C38.4989 40.9867 38.5794 41.0112 38.6619 41.0285C38.7454 41.0448 38.8289 41.0529 38.9134 41.0529C38.9979 41.0529 39.0814 41.0448 39.1639 41.0275C39.2464 41.0102 39.3269 40.9857 39.4054 40.9521C39.4829 40.9185 39.5575 40.8788 39.6271 40.83C39.6976 40.7821 39.7622 40.7272 39.8219 40.6661C39.8815 40.605 39.9352 40.5389 39.9819 40.4666C40.0286 40.3953 40.0684 40.319 40.1012 40.2396C40.133 40.1592 40.1578 40.0767 40.1737 39.9922C40.1906 39.9078 40.1986 39.8223 40.1986 39.7357C40.1986 39.6492 40.1906 39.5627 40.1737 39.4782C40.1568 39.3927 40.133 39.3102 40.1002 39.2298C40.0674 39.1504 40.0276 39.0741 39.9809 39.0018C39.9332 38.9295 39.8795 38.8634 39.8199 38.8023C39.7593 38.7412 39.6936 38.6863 39.6231 38.6384C39.5525 38.5906 39.478 38.5499 39.4004 38.5173C39.3219 38.4837 39.2404 38.4593 39.1579 38.443C39.0744 38.4257 38.9899 38.4175 38.9054 38.4185ZM35.7347 41.7654C35.6572 41.7654 35.5797 41.7726 35.5031 41.7889C35.4266 41.8041 35.353 41.8265 35.2805 41.8571C35.2089 41.8876 35.1403 41.9253 35.0757 41.9701C35.0111 42.0138 34.9505 42.0647 34.8958 42.1207C34.8402 42.1777 34.7915 42.2388 34.7477 42.3049C34.705 42.3711 34.6682 42.4413 34.6384 42.5146C34.6086 42.5889 34.5857 42.6643 34.5708 42.7426C34.5559 42.821 34.5479 42.9004 34.5479 42.9798C34.5479 43.0602 34.5559 43.1386 34.5708 43.217C34.5857 43.2954 34.6086 43.3717 34.6384 43.445C34.6682 43.5183 34.705 43.5885 34.7477 43.6547C34.7915 43.7209 34.8402 43.783 34.8958 43.8389C34.9505 43.8959 35.0111 43.9458 35.0757 43.9906C35.1403 44.0344 35.2089 44.072 35.2805 44.1026C35.353 44.1331 35.4266 44.1565 35.5031 44.1718C35.5797 44.1871 35.6572 44.1952 35.7347 44.1952C35.8132 44.1952 35.8908 44.1871 35.9663 44.1718C36.0428 44.1565 36.1174 44.1331 36.19 44.1026C36.2615 44.072 36.3301 44.0344 36.3947 43.9906C36.4593 43.9458 36.5199 43.8959 36.5746 43.8389C36.6303 43.783 36.679 43.7209 36.7227 43.6547C36.7655 43.5885 36.8022 43.5183 36.8321 43.445C36.8619 43.3717 36.8847 43.2954 36.8996 43.217C36.9145 43.1386 36.9225 43.0602 36.9225 42.9798C36.9225 42.9004 36.9155 42.821 36.8996 42.7426C36.8847 42.6643 36.8619 42.5889 36.8321 42.5146C36.8022 42.4413 36.7664 42.3711 36.7227 42.3049C36.68 42.2388 36.6303 42.1767 36.5756 42.1207C36.5199 42.0637 36.4603 42.0138 36.3947 41.969C36.3301 41.9253 36.2615 41.8876 36.19 41.8571C36.1174 41.8265 36.0438 41.8031 35.9673 41.7878C35.8908 41.7726 35.8132 41.7644 35.7347 41.7654ZM32.565 45.1103C32.4934 45.1103 32.4229 45.1174 32.3523 45.1317C32.2827 45.1459 32.2141 45.1673 32.1485 45.1948C32.0819 45.2233 32.0193 45.2569 31.9597 45.2976C31.9 45.3383 31.8454 45.3852 31.7947 45.4361C31.744 45.488 31.6993 45.545 31.6595 45.605C31.6197 45.6661 31.5859 45.7302 31.5591 45.7984C31.5313 45.8656 31.5104 45.9348 31.4965 46.0071C31.4826 46.0784 31.4756 46.1506 31.4756 46.2239C31.4756 46.2972 31.4826 46.3695 31.4965 46.4418C31.5104 46.513 31.5313 46.5832 31.5591 46.6504C31.5859 46.7186 31.6197 46.7828 31.6595 46.8428C31.6993 46.9039 31.744 46.9599 31.7947 47.0118C31.8454 47.0637 31.9 47.1095 31.9597 47.1502C32.0193 47.1909 32.0819 47.2255 32.1485 47.254C32.2141 47.2815 32.2827 47.3029 32.3523 47.3172C32.4229 47.3314 32.4934 47.3385 32.565 47.3385C32.6366 47.3385 32.7071 47.3314 32.7767 47.3172C32.8473 47.3029 32.9149 47.2815 32.9815 47.254C33.0471 47.2255 33.1097 47.1909 33.1693 47.1502C33.229 47.1095 33.2836 47.0637 33.3343 47.0118C33.385 46.9599 33.4307 46.9039 33.4695 46.8428C33.5093 46.7828 33.543 46.7186 33.5709 46.6504C33.5977 46.5832 33.6186 46.513 33.6325 46.4418C33.6464 46.3695 33.6534 46.2972 33.6534 46.2239C33.6534 46.1506 33.6464 46.0784 33.6325 46.0071C33.6186 45.9348 33.5987 45.8656 33.5709 45.7974C33.544 45.7302 33.5102 45.6661 33.4705 45.605C33.4307 45.5439 33.386 45.488 33.3353 45.4361C33.2846 45.3841 33.229 45.3383 33.1703 45.2976C33.1107 45.2569 33.0481 45.2223 32.9815 45.1948C32.9159 45.1663 32.8473 45.1459 32.7777 45.1317C32.7071 45.1174 32.6366 45.1103 32.565 45.1103ZM29.3943 48.4572C29.2641 48.4572 29.1378 48.4827 29.0166 48.5336C28.8963 48.5845 28.7899 48.6578 28.6975 48.7524C28.6051 48.8471 28.5335 48.956 28.4838 49.0792C28.4331 49.2034 28.4083 49.3316 28.4083 49.466C28.4083 49.5993 28.4331 49.7286 28.4838 49.8518C28.5335 49.9749 28.6051 50.0849 28.6975 50.1795C28.7899 50.2732 28.8963 50.3465 29.0166 50.3974C29.1378 50.4493 29.2641 50.4747 29.3943 50.4747C29.5255 50.4747 29.6507 50.4493 29.772 50.3974C29.8922 50.3465 29.9986 50.2732 30.091 50.1795C30.1835 50.0849 30.255 49.9749 30.3047 49.8518C30.3554 49.7286 30.3803 49.5993 30.3803 49.466C30.3803 49.3316 30.3554 49.2034 30.3047 49.0792C30.255 48.956 30.1835 48.8471 30.091 48.7524C29.9986 48.6578 29.8922 48.5845 29.772 48.5336C29.6507 48.4827 29.5255 48.4572 29.3943 48.4572ZM26.2235 51.8031C26.1063 51.8031 25.993 51.8265 25.8836 51.8723C25.7753 51.9192 25.6789 51.9843 25.5954 52.0698C25.5119 52.1553 25.4483 52.253 25.4025 52.365C25.3578 52.476 25.3349 52.592 25.3349 52.7131C25.3349 52.8332 25.3578 52.9493 25.4025 53.0613C25.4483 53.1722 25.5119 53.2709 25.5954 53.3554C25.6789 53.4409 25.7753 53.5071 25.8836 53.5529C25.993 53.5987 26.1063 53.6221 26.2235 53.6221C26.3418 53.6221 26.4551 53.5987 26.5645 53.5529C26.6728 53.5071 26.7692 53.4409 26.8527 53.3554C26.9352 53.2709 26.9998 53.1722 27.0446 53.0613C27.0903 52.9493 27.1121 52.8332 27.1121 52.7131C27.1121 52.592 27.0903 52.476 27.0446 52.365C26.9998 52.253 26.9352 52.1553 26.8527 52.0698C26.7692 51.9843 26.6728 51.9192 26.5645 51.8723C26.4551 51.8265 26.3418 51.8031 26.2235 51.8031ZM23.0538 55.149C22.9485 55.149 22.8481 55.1694 22.7507 55.2101C22.6542 55.2508 22.5688 55.3098 22.4952 55.3852C22.4207 55.4615 22.364 55.549 22.3233 55.6478C22.2835 55.7465 22.2636 55.8503 22.2636 55.9572C22.2636 56.0641 22.2835 56.1679 22.3233 56.2667C22.364 56.3654 22.4207 56.4529 22.4952 56.5293C22.5688 56.6046 22.6542 56.6626 22.7507 56.7044C22.8481 56.7451 22.9485 56.7654 23.0538 56.7654C23.1582 56.7654 23.2586 56.7451 23.356 56.7044C23.4524 56.6626 23.5379 56.6046 23.6124 56.5293C23.686 56.4529 23.7436 56.3654 23.7834 56.2667C23.8231 56.1679 23.844 56.0641 23.844 55.9572C23.844 55.8503 23.8231 55.7465 23.7834 55.6478C23.7436 55.549 23.686 55.4615 23.6124 55.3852C23.5379 55.3098 23.4524 55.2508 23.356 55.2101C23.2586 55.1694 23.1582 55.149 23.0538 55.149ZM19.8841 58.4949C19.7926 58.4949 19.7052 58.5132 19.6197 58.5488C19.5352 58.5845 19.4607 58.6354 19.3961 58.7015C19.3315 58.7677 19.2808 58.844 19.246 58.9306C19.2102 59.0171 19.1933 59.1067 19.1933 59.2003C19.1923 59.2939 19.2102 59.3845 19.245 59.4711C19.2798 59.5576 19.3295 59.6339 19.3941 59.7001C19.4597 59.7663 19.5342 59.8182 19.6187 59.8538C19.7032 59.8894 19.7907 59.9078 19.8821 59.9078C19.9745 59.9078 20.062 59.8894 20.1465 59.8538C20.231 59.8182 20.3065 59.7673 20.3711 59.7011C20.4357 59.635 20.4854 59.5586 20.5202 59.4721C20.556 59.3856 20.5729 59.295 20.5729 59.2013C20.5729 59.1077 20.556 59.0181 20.5212 58.9316C20.4854 58.8451 20.4357 58.7687 20.3711 58.7025C20.3065 58.6364 20.233 58.5855 20.1485 58.5499C20.064 58.5132 19.9755 58.4949 19.8841 58.4949ZM26.1142 25.2376C26.0168 25.2376 25.9194 25.2467 25.824 25.2661C25.7276 25.2854 25.6351 25.3139 25.5447 25.3516C25.4542 25.3892 25.3678 25.4361 25.2862 25.491C25.2047 25.547 25.1302 25.6091 25.0606 25.6804C24.991 25.7506 24.9294 25.8269 24.8747 25.9104C24.8201 25.9929 24.7744 26.0804 24.7366 26.173C24.6988 26.2646 24.67 26.3603 24.6511 26.458C24.6312 26.5558 24.6213 26.6545 24.6213 26.7543C24.6203 26.855 24.6302 26.9538 24.6491 27.0515C24.667 27.1502 24.6948 27.2449 24.7326 27.3375C24.7694 27.4301 24.8151 27.5177 24.8688 27.6012C24.9235 27.6846 24.9841 27.762 25.0537 27.8322C25.1222 27.9035 25.1968 27.9666 25.2783 28.0226C25.3588 28.0786 25.4443 28.1254 25.5347 28.1641C25.6252 28.2027 25.7176 28.2323 25.814 28.2516C25.9095 28.272 26.0059 28.2821 26.1033 28.2821C26.2017 28.2821 26.2981 28.273 26.3935 28.2536C26.4899 28.2343 26.5834 28.2058 26.6738 28.1681C26.7633 28.1295 26.8497 28.0836 26.9312 28.0277C27.0127 27.9727 27.0873 27.9096 27.1569 27.8393C27.2264 27.7691 27.2881 27.6928 27.3427 27.6093C27.3974 27.5268 27.4431 27.4383 27.4809 27.3467C27.5187 27.254 27.5465 27.1594 27.5664 27.0617C27.5853 26.9629 27.5952 26.8642 27.5962 26.7644C27.5962 26.6647 27.5873 26.5659 27.5684 26.4672C27.5495 26.3695 27.5217 26.2748 27.4839 26.1822C27.4471 26.0896 27.4014 26.002 27.3477 25.9185C27.294 25.8351 27.2324 25.7587 27.1638 25.6875C27.0952 25.6162 27.0197 25.5531 26.9392 25.4971C26.8577 25.4422 26.7722 25.3943 26.6828 25.3556C26.5923 25.317 26.4999 25.2885 26.4035 25.2681C26.308 25.2488 26.2116 25.2386 26.1142 25.2376ZM22.9435 22.0963C22.852 22.0963 22.7626 22.1054 22.6731 22.1227C22.5837 22.1411 22.4962 22.1685 22.4127 22.2042C22.3282 22.2388 22.2487 22.2825 22.1722 22.3345C22.0966 22.3864 22.0261 22.4454 21.9625 22.5106C21.8978 22.5767 21.8402 22.649 21.7895 22.7264C21.7388 22.8037 21.6961 22.8852 21.6613 22.9717C21.6255 23.0572 21.5997 23.1468 21.5818 23.2374C21.5639 23.329 21.5549 23.4216 21.5549 23.5152C21.5549 23.6079 21.5639 23.7005 21.5818 23.7921C21.5987 23.8837 21.6255 23.9723 21.6603 24.0578C21.6951 24.1443 21.7378 24.2257 21.7885 24.3041C21.8392 24.3815 21.8959 24.4527 21.9605 24.5189C22.0251 24.5851 22.0956 24.6441 22.1712 24.696C22.2467 24.7479 22.3262 24.7917 22.4107 24.8273C22.4952 24.863 22.5817 24.8894 22.6711 24.9078C22.7606 24.9261 22.8511 24.9352 22.9415 24.9352C23.0329 24.9352 23.1234 24.9261 23.2129 24.9078C23.3023 24.8904 23.3888 24.863 23.4733 24.8273C23.5568 24.7917 23.6373 24.7479 23.7128 24.696C23.7884 24.6441 23.8589 24.5861 23.9225 24.5199C23.9871 24.4538 24.0448 24.3825 24.0955 24.3041C24.1462 24.2268 24.1889 24.1453 24.2237 24.0588C24.2585 23.9733 24.2853 23.8837 24.3032 23.7931C24.3211 23.7015 24.3291 23.6089 24.3291 23.5152C24.3291 23.4226 24.3211 23.33 24.3032 23.2384C24.2853 23.1468 24.2585 23.0582 24.2237 22.9717C24.1889 22.8852 24.1462 22.8037 24.0955 22.7264C24.0448 22.649 23.9871 22.5767 23.9225 22.5106C23.8579 22.4454 23.7874 22.3864 23.7118 22.3345C23.6353 22.2825 23.5558 22.2388 23.4713 22.2032C23.3868 22.1675 23.3003 22.1411 23.2109 22.1227C23.1214 22.1044 23.031 22.0963 22.9395 22.0963H22.9435ZM19.7757 18.954C19.6913 18.954 19.6078 18.9621 19.5253 18.9794C19.4418 18.9967 19.3613 19.0211 19.2837 19.0547C19.2052 19.0873 19.1307 19.128 19.0611 19.1759C18.9905 19.2237 18.9259 19.2787 18.8653 19.3398C18.8056 19.4008 18.753 19.468 18.7053 19.5393C18.6585 19.6115 18.6188 19.6879 18.587 19.7673C18.5542 19.8477 18.5303 19.9291 18.5134 20.0146C18.4965 20.0991 18.4886 20.1846 18.4886 20.2711C18.4886 20.3577 18.4965 20.4432 18.5134 20.5287C18.5303 20.6132 18.5542 20.6956 18.587 20.776C18.6188 20.8554 18.6585 20.9318 18.7053 21.003C18.753 21.0753 18.8056 21.1415 18.8653 21.2025C18.9259 21.2636 18.9905 21.3186 19.0611 21.3664C19.1307 21.4153 19.2052 21.455 19.2837 21.4886C19.3613 21.5211 19.4418 21.5466 19.5253 21.5639C19.6078 21.5802 19.6913 21.5883 19.7757 21.5883C19.8602 21.5883 19.9447 21.5802 20.0272 21.5639C20.1097 21.5466 20.1902 21.5211 20.2688 21.4886C20.3463 21.455 20.4208 21.4153 20.4914 21.3664C20.562 21.3186 20.6266 21.2636 20.6862 21.2025C20.7459 21.1415 20.7995 21.0753 20.8462 21.003C20.893 20.9318 20.9327 20.8554 20.9655 20.776C20.9973 20.6956 21.0222 20.6132 21.0391 20.5287C21.055 20.4432 21.0629 20.3577 21.0629 20.2711C21.0629 20.1846 21.055 20.0991 21.0391 20.0146C21.0222 19.9291 20.9973 19.8477 20.9655 19.7673C20.9327 19.6879 20.893 19.6115 20.8462 19.5393C20.7995 19.468 20.7459 19.4008 20.6862 19.3398C20.6266 19.2787 20.562 19.2237 20.4914 19.1759C20.4208 19.128 20.3463 19.0873 20.2688 19.0547C20.1902 19.0211 20.1097 18.9967 20.0272 18.9794C19.9447 18.9621 19.8602 18.954 19.7757 18.954ZM16.5981 15.8106C16.5205 15.8106 16.443 15.8188 16.3665 15.8341C16.2909 15.8493 16.2164 15.8727 16.1438 15.9033C16.0723 15.9338 16.0037 15.9715 15.9391 16.0152C15.8745 16.06 15.8138 16.1099 15.7592 16.1669C15.7035 16.2229 15.6548 16.284 15.6111 16.3512C15.5683 16.4173 15.5316 16.4876 15.5017 16.5608C15.4719 16.6341 15.4491 16.7105 15.4341 16.7889C15.4192 16.8672 15.4113 16.9456 15.4113 17.026C15.4113 17.1054 15.4192 17.1848 15.4341 17.2632C15.4491 17.3406 15.4719 17.4169 15.5017 17.4902C15.5316 17.5645 15.5683 17.6347 15.6111 17.7009C15.6548 17.7671 15.7035 17.8282 15.7592 17.8852C15.8138 17.9411 15.8745 17.992 15.9391 18.0358C16.0037 18.0806 16.0723 18.1172 16.1438 18.1478C16.2164 18.1783 16.2909 18.2017 16.3665 18.217C16.443 18.2333 16.5205 18.2404 16.5981 18.2404C16.6766 18.2404 16.7541 18.2333 16.8307 18.217C16.9062 18.2017 16.9807 18.1783 17.0533 18.1478C17.1249 18.1172 17.1935 18.0806 17.2581 18.0358C17.3227 17.992 17.3833 17.9411 17.438 17.8852C17.4936 17.8282 17.5423 17.7671 17.5861 17.7009C17.6288 17.6347 17.6656 17.5645 17.6954 17.4902C17.7252 17.4169 17.7481 17.3406 17.763 17.2632C17.7779 17.1848 17.7858 17.1054 17.7858 17.026C17.7858 16.9456 17.7789 16.8672 17.763 16.7889C17.7481 16.7105 17.7252 16.6341 17.6954 16.5608C17.6656 16.4865 17.6298 16.4163 17.5861 16.3501C17.5433 16.284 17.4936 16.2229 17.439 16.1659C17.3833 16.1099 17.3237 16.059 17.2581 16.0152C17.1935 15.9705 17.1249 15.9338 17.0533 15.9033C16.9807 15.8727 16.9072 15.8493 16.8307 15.8341C16.7541 15.8188 16.6766 15.8106 16.5981 15.8106ZM13.4283 12.6704C13.3568 12.6704 13.2862 12.6775 13.2156 12.6918C13.1451 12.706 13.0775 12.7274 13.0109 12.7549C12.9453 12.7834 12.8827 12.817 12.823 12.8577C12.7634 12.8984 12.7087 12.9452 12.658 12.9971C12.6073 13.048 12.5626 13.105 12.5228 13.1661C12.4831 13.2262 12.4493 13.2903 12.4225 13.3585C12.3946 13.4257 12.3738 13.4959 12.3598 13.5672C12.3459 13.6394 12.339 13.7117 12.339 13.785C12.339 13.8583 12.3469 13.9306 12.3608 14.0018C12.3747 14.0741 12.3946 14.1433 12.4225 14.2115C12.4503 14.2787 12.4831 14.3428 12.5228 14.4039C12.5626 14.465 12.6083 14.5209 12.659 14.5729C12.7097 14.6248 12.7644 14.6706 12.824 14.7113C12.8837 14.752 12.9463 14.7856 13.0119 14.8141C13.0785 14.8416 13.1461 14.863 13.2166 14.8772C13.2872 14.8915 13.3578 14.8986 13.4293 14.8986C13.5009 14.8986 13.5715 14.8915 13.641 14.8772C13.7116 14.863 13.7792 14.8416 13.8458 14.8131C13.9114 14.7856 13.974 14.751 14.0337 14.7103C14.0933 14.6696 14.148 14.6227 14.1987 14.5708C14.2493 14.5199 14.2941 14.4629 14.3338 14.4018C14.3736 14.3418 14.4074 14.2766 14.4342 14.2095C14.4621 14.1423 14.4819 14.072 14.4959 14.0008C14.5098 13.9285 14.5167 13.8562 14.5167 13.783C14.5167 13.7097 14.5098 13.6374 14.4959 13.5661C14.4819 13.4939 14.4611 13.4247 14.4342 13.3565C14.4064 13.2893 14.3726 13.2251 14.3328 13.1641C14.2941 13.104 14.2484 13.047 14.1977 12.9961C14.147 12.9442 14.0923 12.8974 14.0327 12.8577C13.973 12.817 13.9104 12.7823 13.8448 12.7549C13.7782 12.7264 13.7106 12.706 13.6401 12.6918C13.5705 12.6775 13.4999 12.6704 13.4283 12.6704ZM10.2576 9.52705C10.1274 9.52705 10.0012 9.5525 9.87992 9.6034C9.75965 9.65531 9.65329 9.72758 9.56086 9.82225C9.46842 9.91691 9.39685 10.0258 9.34715 10.15C9.29646 10.2732 9.27161 10.4025 9.27161 10.5358C9.27161 10.6692 9.29646 10.7984 9.34715 10.9216C9.39685 11.0458 9.46842 11.1547 9.56086 11.2494C9.65329 11.344 9.75965 11.4163 9.87992 11.4682C10.0012 11.5191 10.1274 11.5446 10.2576 11.5446C10.3888 11.5446 10.5141 11.5191 10.6353 11.4682C10.7556 11.4163 10.8619 11.344 10.9544 11.2494C11.0468 11.1547 11.1184 11.0458 11.1681 10.9216C11.2188 10.7984 11.2436 10.6692 11.2436 10.5358C11.2436 10.4025 11.2188 10.2732 11.1681 10.15C11.1184 10.0258 11.0468 9.91691 10.9544 9.82225C10.8619 9.72758 10.7556 9.65531 10.6353 9.6034C10.5141 9.5525 10.3888 9.52705 10.2576 9.52705ZM7.0869 6.38475C6.96961 6.38475 6.8563 6.40816 6.74696 6.45397C6.63862 6.50079 6.54221 6.56594 6.45872 6.65144C6.37522 6.73695 6.31161 6.83467 6.26589 6.94664C6.22116 7.05759 6.1983 7.17363 6.1983 7.29476C6.1983 7.41488 6.22116 7.53092 6.26589 7.64187C6.31161 7.75384 6.37522 7.85258 6.45872 7.93707C6.54221 8.02257 6.63862 8.08874 6.74696 8.13454C6.8563 8.18035 6.96961 8.20376 7.0869 8.20376C7.20518 8.20376 7.31849 8.18035 7.42782 8.13454C7.53617 8.08874 7.63258 8.02257 7.71607 7.93707C7.79857 7.85258 7.86318 7.75384 7.90791 7.64187C7.95363 7.53092 7.97649 7.41488 7.97649 7.29476C7.97549 7.17363 7.95363 7.05759 7.90791 6.94664C7.86318 6.83568 7.79857 6.73695 7.71508 6.65144C7.63159 6.56696 7.53617 6.50079 7.42683 6.45498C7.31849 6.40816 7.20518 6.38475 7.0869 6.38475ZM3.91717 3.24346C3.81181 3.24244 3.71142 3.2628 3.61401 3.30352C3.5176 3.34525 3.43212 3.40327 3.35757 3.4786C3.28302 3.55494 3.22637 3.64248 3.18562 3.74122C3.14586 3.83996 3.12499 3.94379 3.12499 4.05067C3.12499 4.15755 3.14486 4.26138 3.18562 4.36011C3.22537 4.45885 3.28203 4.54639 3.35658 4.62274C3.43013 4.69908 3.51561 4.7571 3.61302 4.79782C3.70943 4.83955 3.80982 4.85991 3.91518 4.85991C4.01955 4.85991 4.12093 4.83955 4.21734 4.79884C4.31475 4.75812 4.40023 4.69908 4.47378 4.62375C4.54833 4.54741 4.60499 4.45987 4.64574 4.36113C4.6855 4.26239 4.70538 4.15857 4.70538 4.05169C4.70538 3.94481 4.6855 3.84098 4.64574 3.74224C4.60598 3.6435 4.54833 3.55596 4.47478 3.48064C4.40023 3.40429 4.31575 3.34627 4.21834 3.30454C4.12192 3.26382 4.02153 3.24346 3.91717 3.24346ZM0.747441 0.101157C0.655997 0.101157 0.568528 0.118461 0.483048 0.154089C0.398562 0.189716 0.324015 0.240611 0.259408 0.306776C0.1948 0.37294 0.144109 0.449284 0.10932 0.535807C0.0745318 0.62233 0.0566406 0.712924 0.0566406 0.806572C0.0566406 0.90022 0.0735378 0.989797 0.108326 1.07632C0.143115 1.16284 0.192813 1.2402 0.258414 1.30637C0.323021 1.37253 0.397568 1.42343 0.482054 1.45906C0.56654 1.4957 0.654009 1.51301 0.746447 1.51301C0.837891 1.51301 0.925359 1.4957 1.00985 1.46007C1.09433 1.42445 1.16987 1.37253 1.23448 1.30637C1.29909 1.2402 1.34878 1.16386 1.38357 1.07734C1.41936 0.990815 1.43625 0.901238 1.43625 0.80759C1.43625 0.713942 1.41936 0.623347 1.38457 0.536825C1.34878 0.45132 1.29909 0.374976 1.23448 0.308812C1.17087 0.242647 1.09632 0.190733 1.01183 0.155106C0.927347 0.119479 0.838885 0.101157 0.747441 0.101157ZM32.4885 25.2376C32.391 25.2376 32.2946 25.2477 32.1982 25.2671C32.1028 25.2864 32.0094 25.3149 31.9199 25.3536C31.8295 25.3913 31.744 25.4381 31.6625 25.4931C31.581 25.549 31.5064 25.6122 31.4369 25.6824C31.3683 25.7526 31.3056 25.83 31.252 25.9124C31.1973 25.9959 31.1516 26.0834 31.1138 26.1761C31.076 26.2677 31.0482 26.3634 31.0293 26.4611C31.0094 26.5588 31.0005 26.6575 30.9995 26.7573C30.9995 26.8571 31.0094 26.9568 31.0283 27.0545C31.0472 27.1523 31.0751 27.2479 31.1118 27.3396C31.1496 27.4322 31.1953 27.5197 31.249 27.6032C31.3037 27.6867 31.3643 27.763 31.4339 27.8343C31.5025 27.9045 31.577 27.9686 31.6585 28.0236C31.74 28.0796 31.8255 28.1264 31.9149 28.1651C32.0054 28.2038 32.0978 28.2323 32.1942 28.2526C32.2897 28.272 32.3861 28.2821 32.4845 28.2821C32.5819 28.2821 32.6783 28.273 32.7737 28.2536C32.8701 28.2343 32.9626 28.2058 33.053 28.1671C33.1435 28.1295 33.229 28.0826 33.3105 28.0277C33.392 27.9727 33.4675 27.9096 33.5361 27.8393C33.6057 27.7681 33.6673 27.6918 33.722 27.6093C33.7766 27.5258 33.8223 27.4383 33.8601 27.3467C33.8979 27.254 33.9257 27.1594 33.9456 27.0606C33.9645 26.9629 33.9744 26.8642 33.9744 26.7644C33.9744 26.6647 33.9655 26.5649 33.9466 26.4672C33.9277 26.3685 33.8999 26.2738 33.8631 26.1812C33.8253 26.0885 33.7796 26 33.7259 25.9175C33.6713 25.8341 33.6096 25.7567 33.5411 25.6854C33.4715 25.6152 33.3969 25.5521 33.3154 25.4961C33.2349 25.4401 33.1484 25.3933 33.058 25.3546C32.9685 25.3159 32.8751 25.2874 32.7787 25.2681C32.6833 25.2477 32.5869 25.2386 32.4885 25.2376ZM29.3187 24.9342C29.4092 24.9342 29.4996 24.9251 29.5891 24.9067C29.6785 24.8884 29.765 24.8619 29.8495 24.8263C29.933 24.7897 30.0135 24.7459 30.089 24.695C30.1646 24.6431 30.2352 24.5841 30.2998 24.5179C30.3634 24.4517 30.421 24.3805 30.4717 24.3031C30.5224 24.2247 30.5652 24.1433 30.5999 24.0568C30.6347 23.9713 30.6616 23.8827 30.6795 23.7911C30.6964 23.6995 30.7053 23.6069 30.7053 23.5142C30.7053 23.4206 30.6964 23.3279 30.6785 23.2363C30.6606 23.1457 30.6347 23.0562 30.5999 22.9707C30.5652 22.8841 30.5224 22.8027 30.4717 22.7253C30.421 22.648 30.3634 22.5757 30.2988 22.5095C30.2342 22.4444 30.1646 22.3854 30.0881 22.3334C30.0125 22.2815 29.933 22.2378 29.8485 22.2021C29.764 22.1665 29.6775 22.14 29.5881 22.1217C29.4986 22.1034 29.4082 22.0942 29.3177 22.0942C29.2263 22.0942 29.1358 22.1034 29.0464 22.1217C28.9569 22.14 28.8705 22.1675 28.786 22.2032C28.7025 22.2388 28.622 22.2825 28.5464 22.3345C28.4709 22.3864 28.4013 22.4454 28.3367 22.5116C28.2721 22.5777 28.2144 22.649 28.1638 22.7264C28.1131 22.8037 28.0713 22.8862 28.0365 22.9727C28.0017 23.0582 27.9749 23.1468 27.957 23.2384C27.9401 23.33 27.9312 23.4226 27.9312 23.5152C27.9312 23.6089 27.9401 23.7015 27.957 23.7931C27.9749 23.8837 28.0017 23.9733 28.0365 24.0588C28.0713 24.1453 28.1141 24.2268 28.1647 24.3041C28.2154 24.3815 28.2721 24.4538 28.3367 24.5199C28.4013 24.5851 28.4719 24.6441 28.5474 24.696C28.623 24.7479 28.7035 24.7917 28.787 24.8263C28.8714 24.8619 28.9579 24.8894 29.0474 24.9067C29.1368 24.9251 29.2273 24.9342 29.3187 24.9342ZM26.148 21.5883C26.2325 21.5883 26.316 21.5802 26.3995 21.5639C26.482 21.5466 26.5625 21.5211 26.641 21.4886C26.7195 21.455 26.7931 21.4143 26.8637 21.3664C26.9342 21.3186 26.9988 21.2636 27.0585 21.2025C27.1191 21.1404 27.1718 21.0743 27.2195 21.002C27.2662 20.9297 27.306 20.8544 27.3378 20.774C27.3706 20.6936 27.3944 20.6111 27.4103 20.5266C27.4272 20.4411 27.4352 20.3556 27.4352 20.2691C27.4352 20.1826 27.4262 20.0971 27.4103 20.0116C27.3934 19.9271 27.3686 19.8446 27.3358 19.7642C27.303 19.6848 27.2632 19.6085 27.2165 19.5372C27.1688 19.465 27.1151 19.3988 27.0555 19.3377C26.9959 19.2766 26.9303 19.2217 26.8597 19.1738C26.7891 19.126 26.7146 19.0853 26.637 19.0527C26.5585 19.0201 26.478 18.9957 26.3945 18.9784C26.312 18.9621 26.2275 18.954 26.143 18.954C26.0585 18.955 25.9751 18.9631 25.8916 18.9804C25.8091 18.9977 25.7286 19.0232 25.65 19.0568C25.5725 19.0904 25.498 19.1311 25.4284 19.1789C25.3578 19.2278 25.2932 19.2828 25.2336 19.3438C25.1739 19.4059 25.1203 19.4731 25.0735 19.5444C25.0278 19.6166 24.9881 19.693 24.9563 19.7734C24.9244 19.8538 24.8996 19.9363 24.8837 20.0207C24.8678 20.1062 24.8598 20.1918 24.8608 20.2783C24.8608 20.3648 24.8698 20.4503 24.8867 20.5348C24.9036 20.6193 24.9284 20.7007 24.9602 20.7801C24.993 20.8605 25.0328 20.9358 25.0795 21.0071C25.1272 21.0784 25.1799 21.1445 25.2405 21.2056C25.3002 21.2667 25.3648 21.3206 25.4343 21.3685C25.5049 21.4163 25.5785 21.456 25.657 21.4896C25.7345 21.5222 25.815 21.5466 25.8975 21.5639C25.98 21.5802 26.0635 21.5883 26.148 21.5883ZM22.9773 18.2424C23.0558 18.2424 23.1323 18.2343 23.2089 18.219C23.2854 18.2038 23.36 18.1804 23.4315 18.1498C23.5041 18.1193 23.5727 18.0816 23.6373 18.0378C23.7019 17.9931 23.7615 17.9432 23.8172 17.8862C23.8718 17.8302 23.9215 17.7681 23.9643 17.7019C24.008 17.6358 24.0448 17.5655 24.0746 17.4922C24.1044 17.4179 24.1263 17.3426 24.1422 17.2642C24.1571 17.1858 24.1651 17.1075 24.1651 17.0271C24.1651 16.9477 24.1571 16.8683 24.1422 16.7899C24.1263 16.7115 24.1044 16.6362 24.0746 16.5619C24.0448 16.4886 24.008 16.4183 23.9643 16.3522C23.9215 16.286 23.8718 16.2249 23.8172 16.1679C23.7615 16.1119 23.7019 16.0611 23.6373 16.0173C23.5727 15.9725 23.5041 15.9348 23.4315 15.9043C23.36 15.8738 23.2854 15.8514 23.2089 15.8351C23.1323 15.8198 23.0558 15.8127 22.9773 15.8127C22.8998 15.8127 22.8222 15.8198 22.7457 15.8351C22.6692 15.8514 22.5946 15.8738 22.523 15.9043C22.4515 15.9348 22.3829 15.9725 22.3173 16.0173C22.2527 16.0611 22.1931 16.1119 22.1374 16.1679C22.0827 16.2249 22.033 16.286 21.9903 16.3522C21.9466 16.4183 21.9108 16.4886 21.881 16.5619C21.8511 16.6362 21.8283 16.7115 21.8134 16.7899C21.7975 16.8683 21.7905 16.9477 21.7905 17.0271C21.7895 17.1075 21.7975 17.1858 21.8124 17.2642C21.8283 17.3426 21.8501 17.419 21.88 17.4922C21.9098 17.5665 21.9466 17.6358 21.9893 17.7029C22.033 17.7691 22.0827 17.8302 22.1374 17.8872C22.1931 17.9432 22.2527 17.9931 22.3173 18.0378C22.3819 18.0826 22.4505 18.1193 22.523 18.1498C22.5946 18.1804 22.6692 18.2038 22.7457 18.219C22.8222 18.2343 22.8998 18.2424 22.9773 18.2424ZM19.8066 14.8966C19.8781 14.8976 19.9497 14.8904 20.0193 14.8762C20.0898 14.8619 20.1574 14.8406 20.224 14.8131C20.2896 14.7846 20.3532 14.751 20.4119 14.7103C20.4715 14.6696 20.5272 14.6227 20.5779 14.5718C20.6276 14.5199 20.6733 14.4639 20.7131 14.4029C20.7528 14.3418 20.7866 14.2777 20.8134 14.2105C20.8413 14.1423 20.8621 14.0731 20.8761 14.0008C20.89 13.9295 20.8969 13.8573 20.8969 13.784C20.8969 13.7107 20.89 13.6384 20.8761 13.5661C20.8621 13.4949 20.8423 13.4247 20.8144 13.3575C20.7876 13.2893 20.7538 13.2251 20.714 13.1651C20.6743 13.104 20.6296 13.047 20.5789 12.9961C20.5282 12.9442 20.4735 12.8974 20.4139 12.8567C20.3542 12.8159 20.2916 12.7823 20.226 12.7538C20.1594 12.7253 20.0918 12.705 20.0213 12.6907C19.9517 12.6765 19.8801 12.6683 19.8085 12.6683C19.737 12.6683 19.6664 12.6755 19.5968 12.6897C19.5263 12.704 19.4577 12.7253 19.3921 12.7538C19.3265 12.7813 19.2629 12.8159 19.2042 12.8567C19.1446 12.8974 19.0889 12.9432 19.0382 12.9951C18.9885 13.047 18.9428 13.103 18.9031 13.1641C18.8633 13.2251 18.8295 13.2893 18.8027 13.3565C18.7748 13.4236 18.755 13.4939 18.741 13.5651C18.7271 13.6374 18.7202 13.7097 18.7202 13.783C18.7192 13.8562 18.7271 13.9285 18.741 13.9998C18.755 14.072 18.7748 14.1413 18.8027 14.2084C18.8295 14.2766 18.8633 14.3408 18.9031 14.4018C18.9428 14.4619 18.9875 14.5189 19.0382 14.5698C19.0889 14.6217 19.1436 14.6685 19.2032 14.7082C19.2619 14.749 19.3245 14.7836 19.3911 14.8121C19.4567 14.8396 19.5243 14.8609 19.5949 14.8752C19.6644 14.8894 19.736 14.8966 19.8066 14.8966ZM16.6368 11.5507C16.767 11.5507 16.8933 11.5252 17.0135 11.4733C17.1348 11.4224 17.2412 11.3491 17.3336 11.2545C17.426 11.1598 17.4976 11.0509 17.5473 10.9277C17.597 10.8035 17.6228 10.6753 17.6228 10.5419C17.6228 10.4075 17.597 10.2793 17.5473 10.1551C17.4976 10.0319 17.426 9.92302 17.3336 9.82836C17.2412 9.73369 17.1348 9.6604 17.0135 9.6095C16.8933 9.55861 16.767 9.53214 16.6368 9.53214C16.5056 9.53214 16.3804 9.55861 16.2591 9.6095C16.1389 9.6604 16.0315 9.73369 15.9391 9.82836C15.8466 9.92302 15.7761 10.0319 15.7254 10.1551C15.6757 10.2793 15.6508 10.4075 15.6508 10.5419C15.6508 10.6753 15.6757 10.8035 15.7254 10.9277C15.7761 11.0509 15.8466 11.1598 15.9391 11.2545C16.0315 11.3491 16.1389 11.4224 16.2591 11.4733C16.3804 11.5252 16.5056 11.5507 16.6368 11.5507ZM13.4661 8.20376C13.5844 8.20376 13.6977 8.18035 13.806 8.13454C13.9154 8.08874 14.0108 8.02257 14.0943 7.93707C14.1778 7.85258 14.2424 7.75384 14.2871 7.64187C14.3318 7.53092 14.3547 7.41488 14.3547 7.29476C14.3547 7.17363 14.3318 7.05759 14.2871 6.94664C14.2424 6.83467 14.1778 6.73695 14.0943 6.65144C14.0108 6.56594 13.9154 6.50079 13.806 6.45397C13.6977 6.40816 13.5844 6.38475 13.4661 6.38475C13.3478 6.38475 13.2345 6.40816 13.1262 6.45397C13.0168 6.50079 12.9214 6.56594 12.8379 6.65144C12.7544 6.73695 12.6898 6.83467 12.6451 6.94664C12.6004 7.05759 12.5775 7.17363 12.5775 7.29476C12.5775 7.41488 12.5994 7.53092 12.6451 7.64289C12.6898 7.75384 12.7534 7.85258 12.8369 7.93809C12.9204 8.02359 13.0168 8.08874 13.1262 8.13454C13.2345 8.18137 13.3478 8.20376 13.4661 8.20376ZM10.2954 4.85686C10.4007 4.85686 10.5011 4.8365 10.5985 4.79578C10.695 4.75507 10.7814 4.69704 10.855 4.6207C10.9295 4.54538 10.9862 4.45783 11.0269 4.3591C11.0667 4.25934 11.0876 4.15653 11.0876 4.04863C11.0876 3.94175 11.0677 3.83894 11.0269 3.73919C10.9872 3.64045 10.9295 3.55291 10.856 3.47656C10.7814 3.40124 10.696 3.3422 10.5995 3.30148C10.5021 3.26077 10.4017 3.24041 10.2964 3.24041C10.192 3.24041 10.0906 3.26077 9.99422 3.30148C9.89681 3.34322 9.81133 3.40124 9.73778 3.47758C9.66323 3.55393 9.60658 3.64147 9.56682 3.7402C9.52706 3.83996 9.50718 3.94277 9.50718 4.04965C9.50718 4.15653 9.52706 4.26036 9.56781 4.3591C9.60757 4.45783 9.66423 4.54436 9.73877 4.6207C9.81233 4.69603 9.89781 4.75405 9.99422 4.79578C10.0906 4.8365 10.191 4.85686 10.2954 4.85686ZM7.12666 1.51199C7.2181 1.51199 7.30656 1.49366 7.39105 1.45804C7.47553 1.42241 7.55008 1.37152 7.61469 1.30535C7.6793 1.23919 7.72899 1.16182 7.76478 1.0753C7.79956 0.988779 7.81646 0.899203 7.81646 0.805554C7.81646 0.711906 7.79956 0.621312 7.76378 0.534789C7.72899 0.448266 7.6793 0.371923 7.61469 0.305758C7.54909 0.239593 7.47454 0.188698 7.39005 0.153071C7.30557 0.117444 7.21711 0.0991211 7.12566 0.0991211C7.03422 0.100139 6.94576 0.117444 6.86127 0.154089C6.77678 0.189716 6.70224 0.240611 6.63763 0.306776C6.57302 0.373958 6.52332 0.450302 6.48853 0.536825C6.45375 0.623347 6.43685 0.713942 6.43685 0.80759C6.43685 0.901238 6.45375 0.990815 6.48953 1.07734C6.52432 1.16386 6.57402 1.2402 6.63862 1.30637C6.70323 1.37253 6.77778 1.42343 6.86226 1.45906C6.94774 1.49468 7.03521 1.51199 7.12666 1.51199ZM38.8677 25.2376C38.7703 25.2376 38.6729 25.2477 38.5774 25.2671C38.482 25.2864 38.3886 25.3149 38.2981 25.3536C38.2087 25.3913 38.1222 25.4381 38.0417 25.4931C37.9602 25.549 37.8846 25.6122 37.8161 25.6824C37.7465 25.7526 37.6849 25.83 37.6302 25.9124C37.5765 25.9959 37.5308 26.0834 37.493 26.1761C37.4553 26.2677 37.4274 26.3634 37.4076 26.4611C37.3887 26.5588 37.3787 26.6575 37.3787 26.7573C37.3787 26.8571 37.3877 26.9568 37.4066 27.0545C37.4254 27.1523 37.4543 27.2479 37.491 27.3396C37.5278 27.4322 37.5735 27.5197 37.6282 27.6032C37.6819 27.6867 37.7435 27.763 37.8121 27.8343C37.8817 27.9045 37.9562 27.9686 38.0377 28.0236C38.1182 28.0796 38.2037 28.1264 38.2942 28.1651C38.3846 28.2038 38.477 28.2323 38.5725 28.2526C38.6689 28.272 38.7653 28.2821 38.8627 28.2821C38.9601 28.2821 39.0575 28.273 39.1529 28.2536C39.2484 28.2343 39.3418 28.2058 39.4322 28.1671C39.5227 28.1295 39.6082 28.0826 39.6897 28.0277C39.7712 27.9727 39.8457 27.9096 39.9153 27.8393C39.9849 27.7681 40.0465 27.6918 40.1002 27.6093C40.1548 27.5258 40.2016 27.4383 40.2383 27.3467C40.2761 27.254 40.3049 27.1594 40.3238 27.0606C40.3437 26.9629 40.3536 26.8642 40.3536 26.7644C40.3536 26.6647 40.3447 26.5649 40.3258 26.4672C40.3069 26.3685 40.2791 26.2738 40.2413 26.1812C40.2045 26.0885 40.1588 26 40.1042 25.9175C40.0505 25.8341 39.9889 25.7567 39.9203 25.6854C39.8507 25.6152 39.7761 25.5521 39.6946 25.4961C39.6131 25.4401 39.5277 25.3933 39.4372 25.3546C39.3468 25.3159 39.2543 25.2874 39.1579 25.2681C39.0625 25.2477 38.9651 25.2386 38.8677 25.2376ZM35.692 24.9342C35.7824 24.9342 35.8729 24.9251 35.9623 24.9067C36.0518 24.8884 36.1383 24.8619 36.2228 24.8263C36.3062 24.7897 36.3868 24.7459 36.4623 24.695C36.5378 24.6431 36.6084 24.5841 36.673 24.5179C36.7366 24.4517 36.7943 24.3805 36.845 24.3031C36.8957 24.2247 36.9384 24.1433 36.9732 24.0568C37.008 23.9713 37.0348 23.8827 37.0527 23.7911C37.0696 23.6995 37.0785 23.6069 37.0785 23.5142C37.0785 23.4206 37.0696 23.3279 37.0517 23.2363C37.0338 23.1457 37.008 23.0562 36.9732 22.9707C36.9384 22.8841 36.8957 22.8027 36.845 22.7253C36.7943 22.648 36.7366 22.5757 36.672 22.5095C36.6074 22.4444 36.5378 22.3854 36.4613 22.3334C36.3858 22.2815 36.3062 22.2378 36.2218 22.2021C36.1373 22.1665 36.0508 22.14 35.9613 22.1217C35.8719 22.1034 35.7814 22.0942 35.691 22.0942C35.5995 22.0942 35.5091 22.1034 35.4196 22.1217C35.3302 22.14 35.2437 22.1675 35.1592 22.2032C35.0757 22.2388 34.9952 22.2825 34.9197 22.3345C34.8441 22.3864 34.7736 22.4454 34.7099 22.5116C34.6453 22.5777 34.5877 22.649 34.537 22.7264C34.4863 22.8037 34.4446 22.8862 34.4098 22.9727C34.375 23.0582 34.3482 23.1468 34.3303 23.2384C34.3134 23.33 34.3044 23.4226 34.3044 23.5152C34.3044 23.6089 34.3134 23.7015 34.3303 23.7931C34.3482 23.8837 34.375 23.9733 34.4098 24.0588C34.4446 24.1453 34.4873 24.2268 34.538 24.3041C34.5887 24.3815 34.6453 24.4538 34.7099 24.5199C34.7746 24.5851 34.8451 24.6441 34.9207 24.696C34.9962 24.7479 35.0767 24.7917 35.1602 24.8263C35.2447 24.8619 35.3312 24.8894 35.4206 24.9067C35.5101 24.9251 35.6005 24.9342 35.692 24.9342ZM32.5213 21.5883C32.6057 21.5883 32.6892 21.5802 32.7717 21.5639C32.8552 21.5466 32.9357 21.5211 33.0133 21.4886C33.0918 21.455 33.1663 21.4153 33.2359 21.3664C33.3065 21.3186 33.3711 21.2636 33.4317 21.2025C33.4914 21.1415 33.544 21.0753 33.5918 21.003C33.6385 20.9318 33.6782 20.8554 33.71 20.776C33.7428 20.6956 33.7667 20.6132 33.7836 20.5287C33.8005 20.4432 33.8084 20.3577 33.8084 20.2711C33.8084 20.1846 33.8005 20.0991 33.7836 20.0146C33.7667 19.9291 33.7428 19.8477 33.71 19.7673C33.6782 19.6879 33.6385 19.6115 33.5918 19.5393C33.544 19.468 33.4914 19.4008 33.4317 19.3398C33.3711 19.2787 33.3065 19.2237 33.2359 19.1759C33.1663 19.128 33.0918 19.0873 33.0133 19.0547C32.9357 19.0211 32.8552 18.9967 32.7717 18.9794C32.6892 18.9621 32.6057 18.954 32.5213 18.954C32.4368 18.954 32.3533 18.9621 32.2698 18.9794C32.1873 18.9967 32.1068 19.0211 32.0283 19.0547C31.9507 19.0873 31.8762 19.128 31.8056 19.1759C31.736 19.2237 31.6704 19.2787 31.6108 19.3398C31.5512 19.4008 31.4975 19.468 31.4508 19.5393C31.4041 19.6115 31.3643 19.6879 31.3315 19.7673C31.2997 19.8477 31.2748 19.9291 31.2589 20.0146C31.242 20.0991 31.2341 20.1846 31.2341 20.2711C31.2341 20.3587 31.242 20.4442 31.2589 20.5287C31.2748 20.6142 31.2997 20.6966 31.3325 20.7771C31.3653 20.8575 31.405 20.9328 31.4518 21.0051C31.4995 21.0773 31.5531 21.1435 31.6128 21.2046C31.6724 21.2667 31.738 21.3206 31.8086 21.3685C31.8792 21.4163 31.9537 21.457 32.0322 21.4906C32.1108 21.5232 32.1913 21.5476 32.2748 21.5649C32.3582 21.5812 32.4417 21.5893 32.5262 21.5883H32.5213ZM29.3535 18.2424C29.431 18.2424 29.5086 18.2343 29.5851 18.219C29.6616 18.2038 29.7362 18.1804 29.8078 18.1498C29.8803 18.1193 29.9479 18.0816 30.0135 18.0378C30.0781 17.9931 30.1377 17.9432 30.1934 17.8862C30.2481 17.8302 30.2978 17.7681 30.3405 17.7019C30.3843 17.6358 30.421 17.5655 30.4508 17.4922C30.4807 17.4179 30.5025 17.3426 30.5184 17.2642C30.5333 17.1858 30.5403 17.1075 30.5403 17.0271C30.5403 16.9477 30.5333 16.8683 30.5184 16.7899C30.5025 16.7115 30.4807 16.6362 30.4508 16.5619C30.421 16.4886 30.3843 16.4183 30.3405 16.3522C30.2978 16.286 30.2481 16.2249 30.1934 16.1679C30.1377 16.1119 30.0781 16.0611 30.0135 16.0173C29.9479 15.9725 29.8803 15.9348 29.8078 15.9043C29.7362 15.8738 29.6616 15.8514 29.5851 15.8351C29.5086 15.8198 29.431 15.8127 29.3535 15.8127C29.276 15.8127 29.1985 15.8198 29.1219 15.8351C29.0454 15.8514 28.9708 15.8738 28.8993 15.9043C28.8267 15.9348 28.7591 15.9725 28.6935 16.0173C28.6289 16.0611 28.5693 16.1119 28.5136 16.1679C28.459 16.2249 28.4093 16.286 28.3665 16.3522C28.3228 16.4183 28.286 16.4886 28.2562 16.5619C28.2264 16.6362 28.2045 16.7115 28.1886 16.7899C28.1737 16.8683 28.1657 16.9477 28.1657 17.0271C28.1657 17.1075 28.1737 17.1858 28.1886 17.2642C28.2035 17.3426 28.2264 17.419 28.2562 17.4922C28.286 17.5665 28.3228 17.6358 28.3655 17.7029C28.4093 17.7691 28.458 17.8302 28.5136 17.8872C28.5683 17.9432 28.6289 17.9931 28.6935 18.0378C28.7581 18.0826 28.8267 18.1193 28.8993 18.1498C28.9708 18.1804 29.0454 18.2038 29.1219 18.219C29.1985 18.2343 29.275 18.2424 29.3535 18.2424ZM26.1828 14.8966C26.2544 14.8976 26.3249 14.8904 26.3955 14.8762C26.4661 14.8619 26.5337 14.8406 26.6003 14.8131C26.6659 14.7846 26.7285 14.751 26.7881 14.7103C26.8478 14.6696 26.9024 14.6227 26.9531 14.5718C27.0038 14.5199 27.0495 14.4639 27.0893 14.4029C27.129 14.3418 27.1628 14.2777 27.1897 14.2105C27.2175 14.1423 27.2384 14.0731 27.2523 14.0008C27.2662 13.9295 27.2732 13.8573 27.2732 13.784C27.2732 13.7107 27.2662 13.6384 27.2523 13.5661C27.2384 13.4949 27.2175 13.4247 27.1907 13.3575C27.1628 13.2893 27.13 13.2251 27.0903 13.1651C27.0505 13.104 27.0058 13.047 26.9551 12.9961C26.9044 12.9442 26.8497 12.8974 26.7901 12.8567C26.7305 12.8159 26.6678 12.7823 26.6013 12.7538C26.5357 12.7253 26.4671 12.705 26.3975 12.6907C26.3269 12.6765 26.2563 12.6683 26.1848 12.6683C26.1132 12.6683 26.0426 12.6755 25.9721 12.6897C25.9025 12.704 25.8339 12.7253 25.7683 12.7538C25.7017 12.7813 25.6391 12.8159 25.5795 12.8567C25.5208 12.8974 25.4652 12.9432 25.4145 12.9951C25.3638 13.047 25.319 13.103 25.2793 13.1641C25.2395 13.2251 25.2057 13.2893 25.1789 13.3565C25.1511 13.4236 25.1302 13.4939 25.1163 13.5651C25.1024 13.6374 25.0954 13.7097 25.0954 13.783C25.0954 13.8562 25.1024 13.9285 25.1163 14.0008C25.1302 14.072 25.1511 14.1423 25.1789 14.2095C25.2057 14.2777 25.2395 14.3418 25.2793 14.4018C25.319 14.4629 25.3648 14.5199 25.4155 14.5708C25.4662 14.6227 25.5208 14.6696 25.5805 14.7093C25.6401 14.75 25.7027 14.7846 25.7683 14.8131C25.8349 14.8406 25.9035 14.8619 25.9731 14.8762C26.0436 14.8904 26.1142 14.8976 26.1858 14.8966H26.1828ZM23.0151 11.5507C23.1463 11.5507 23.2715 11.5252 23.3928 11.4733C23.513 11.4224 23.6204 11.3491 23.7128 11.2545C23.8053 11.1598 23.8758 11.0509 23.9265 10.9277C23.9762 10.8035 24.0011 10.6753 24.0011 10.5419C24.0011 10.4075 23.9762 10.2793 23.9265 10.1551C23.8758 10.0319 23.8053 9.92302 23.7128 9.82836C23.6204 9.73369 23.513 9.6604 23.3928 9.6095C23.2715 9.55861 23.1463 9.53214 23.0151 9.53214C22.8848 9.53214 22.7586 9.55861 22.6383 9.6095C22.5171 9.6604 22.4107 9.73369 22.3183 9.82836C22.2259 9.92302 22.1543 10.0319 22.1046 10.1551C22.0549 10.2793 22.0291 10.4075 22.0291 10.5419C22.0291 10.6753 22.0549 10.8035 22.1046 10.9277C22.1543 11.0509 22.2259 11.1598 22.3183 11.2545C22.4107 11.3491 22.5171 11.4224 22.6383 11.4733C22.7586 11.5252 22.8848 11.5507 23.0151 11.5507ZM19.8453 8.20376C19.9626 8.20376 20.0759 8.18035 20.1853 8.13454C20.2936 8.08874 20.39 8.02257 20.4735 7.93707C20.557 7.85258 20.6206 7.75384 20.6663 7.64187C20.7111 7.53092 20.7339 7.41488 20.7339 7.29476C20.7339 7.17363 20.7111 7.05759 20.6663 6.94664C20.6206 6.83467 20.557 6.73695 20.4735 6.65144C20.39 6.56594 20.2936 6.50079 20.1853 6.45397C20.0759 6.40816 19.9626 6.38475 19.8453 6.38475C19.727 6.38475 19.6137 6.40816 19.5054 6.45397C19.3961 6.50079 19.2996 6.56594 19.2162 6.65144C19.1337 6.73695 19.069 6.83467 19.0243 6.94664C18.9786 7.05759 18.9567 7.17363 18.9567 7.29476C18.9557 7.41488 18.9786 7.53092 19.0233 7.64289C19.069 7.75384 19.1327 7.85258 19.2162 7.93809C19.2996 8.02359 19.3961 8.08874 19.5044 8.13454C19.6137 8.18137 19.727 8.20376 19.8453 8.20376ZM16.6776 4.85686C16.782 4.85686 16.8833 4.8365 16.9797 4.79578C17.0772 4.75507 17.1626 4.69704 17.2372 4.6207C17.3107 4.54538 17.3684 4.45783 17.4081 4.3591C17.4489 4.25934 17.4688 4.15653 17.4688 4.04863C17.4688 3.94175 17.4489 3.83894 17.4091 3.73919C17.3684 3.64045 17.3117 3.55291 17.2372 3.47656C17.1636 3.40124 17.0782 3.3422 16.9807 3.30148C16.8843 3.26077 16.7829 3.24041 16.6786 3.24041C16.5732 3.24041 16.4728 3.26077 16.3754 3.30148C16.279 3.34322 16.1935 3.40124 16.119 3.47758C16.0454 3.55393 15.9888 3.64147 15.948 3.7402C15.9083 3.83996 15.8884 3.94277 15.8884 4.04965C15.8884 4.15653 15.9093 4.26036 15.949 4.3591C15.9888 4.45783 16.0464 4.54436 16.12 4.6207C16.1945 4.69603 16.279 4.75405 16.3754 4.79578C16.4728 4.8365 16.5732 4.85686 16.6776 4.85686ZM13.5059 1.51199C13.5973 1.51199 13.6848 1.49366 13.7703 1.45804C13.8547 1.42241 13.9293 1.37152 13.9939 1.30535C14.0585 1.23919 14.1082 1.16182 14.143 1.0753C14.1788 0.988779 14.1957 0.899203 14.1957 0.805554C14.1957 0.711906 14.1778 0.621312 14.143 0.534789C14.1082 0.448266 14.0575 0.371923 13.9929 0.305758C13.9283 0.239593 13.8538 0.188698 13.7693 0.153071C13.6848 0.117444 13.5963 0.0991211 13.5049 0.0991211C13.4134 0.100139 13.325 0.117444 13.2405 0.154089C13.156 0.189716 13.0815 0.240611 13.0168 0.306776C12.9522 0.373958 12.9025 0.450302 12.8678 0.536825C12.833 0.623347 12.8151 0.713942 12.8151 0.80759C12.8151 0.901238 12.833 0.990815 12.8678 1.07734C12.9035 1.16386 12.9532 1.2402 13.0178 1.30637C13.0824 1.37253 13.157 1.42343 13.2415 1.45906C13.326 1.49468 13.4144 1.51199 13.5059 1.51199ZM45.2469 25.2376C45.1485 25.2376 45.0521 25.2477 44.9566 25.2671C44.8602 25.2864 44.7678 25.3149 44.6773 25.3536C44.5869 25.3913 44.5014 25.4381 44.4199 25.4931C44.3394 25.549 44.2639 25.6122 44.1943 25.6824C44.1257 25.7526 44.0641 25.83 44.0094 25.9124C43.9547 25.9959 43.909 26.0834 43.8713 26.1761C43.8345 26.2677 43.8056 26.3634 43.7868 26.4611C43.7679 26.5588 43.7579 26.6575 43.7579 26.7573C43.7579 26.8571 43.7669 26.9568 43.7858 27.0545C43.8047 27.1523 43.8325 27.2479 43.8703 27.3396C43.907 27.4322 43.9528 27.5197 44.0064 27.6032C44.0611 27.6867 44.1227 27.763 44.1913 27.8343C44.2599 27.9045 44.3354 27.9686 44.4159 28.0236C44.4974 28.0796 44.5829 28.1264 44.6734 28.1651C44.7628 28.2038 44.8563 28.2323 44.9517 28.2526C45.0471 28.272 45.1445 28.2821 45.2419 28.2821C45.3393 28.2821 45.4357 28.273 45.5322 28.2536C45.6276 28.2343 45.721 28.2058 45.8105 28.1671C45.9009 28.1295 45.9874 28.0826 46.0679 28.0277C46.1494 27.9727 46.2249 27.9096 46.2945 27.8393C46.3631 27.7681 46.4247 27.6918 46.4794 27.6093C46.5341 27.5258 46.5798 27.4383 46.6176 27.3467C46.6553 27.254 46.6841 27.1594 46.703 27.0606C46.7219 26.9629 46.7319 26.8642 46.7319 26.7644C46.7329 26.6647 46.7229 26.5649 46.705 26.4672C46.6861 26.3685 46.6573 26.2738 46.6205 26.1812C46.5838 26.0885 46.538 26 46.4834 25.9175C46.4297 25.8341 46.3681 25.7567 46.2985 25.6854C46.2299 25.6152 46.1544 25.5521 46.0739 25.4961C45.9924 25.4401 45.9069 25.3933 45.8164 25.3546C45.726 25.3159 45.6325 25.2874 45.5371 25.2681C45.4407 25.2477 45.3443 25.2386 45.2469 25.2376ZM42.0762 24.9342C42.1676 24.9342 42.2571 24.9251 42.3465 24.9067C42.436 24.8884 42.5225 24.8619 42.6069 24.8263C42.6914 24.7897 42.7709 24.7459 42.8465 24.695C42.923 24.6431 42.9926 24.5841 43.0572 24.5179C43.1218 24.4517 43.1795 24.3805 43.2301 24.3031C43.2798 24.2247 43.3226 24.1433 43.3574 24.0568C43.3932 23.9713 43.419 23.8827 43.4369 23.7911C43.4548 23.6995 43.4637 23.6069 43.4637 23.5142C43.4637 23.4206 43.4548 23.3279 43.4369 23.2363C43.419 23.1457 43.3922 23.0562 43.3574 22.9707C43.3226 22.8841 43.2798 22.8027 43.2292 22.7253C43.1785 22.648 43.1208 22.5757 43.0562 22.5095C42.9916 22.4444 42.922 22.3854 42.8465 22.3334C42.7699 22.2815 42.6904 22.2378 42.6059 22.2021C42.5215 22.1665 42.435 22.14 42.3455 22.1217C42.2561 22.1034 42.1666 22.0942 42.0752 22.0942C41.9837 22.0942 41.8933 22.1034 41.8048 22.1217C41.7154 22.14 41.6279 22.1675 41.5444 22.2032C41.4599 22.2388 41.3804 22.2825 41.3039 22.3345C41.2283 22.3864 41.1587 22.4454 41.0941 22.5116C41.0295 22.5777 40.9719 22.649 40.9222 22.7264C40.8715 22.8037 40.8288 22.8862 40.794 22.9727C40.7592 23.0582 40.7323 23.1468 40.7154 23.2384C40.6975 23.33 40.6886 23.4226 40.6886 23.5152C40.6886 23.6089 40.6975 23.7015 40.7154 23.7931C40.7323 23.8837 40.7592 23.9733 40.794 24.0588C40.8288 24.1453 40.8715 24.2268 40.9222 24.3041C40.9729 24.3815 41.0305 24.4538 41.0951 24.5199C41.1587 24.5851 41.2293 24.6441 41.3049 24.696C41.3804 24.7479 41.4609 24.7917 41.5454 24.8263C41.6289 24.8619 41.7164 24.8894 41.8058 24.9067C41.8943 24.9251 41.9847 24.9342 42.0762 24.9342ZM38.9054 21.5883C38.9899 21.5883 39.0734 21.5802 39.1569 21.5639C39.2394 21.5466 39.3199 21.5211 39.3984 21.4886C39.476 21.455 39.5505 21.4153 39.6211 21.3664C39.6907 21.3186 39.7563 21.2636 39.8159 21.2025C39.8755 21.1415 39.9292 21.0753 39.9759 21.003C40.0227 20.9318 40.0624 20.8554 40.0952 20.776C40.127 20.6956 40.1519 20.6132 40.1678 20.5287C40.1847 20.4432 40.1926 20.3577 40.1926 20.2711C40.1926 20.1846 40.1847 20.0991 40.1678 20.0146C40.1519 19.9291 40.127 19.8477 40.0952 19.7673C40.0624 19.6879 40.0227 19.6115 39.9759 19.5393C39.9292 19.468 39.8755 19.4008 39.8159 19.3398C39.7563 19.2787 39.6907 19.2237 39.6211 19.1759C39.5505 19.128 39.476 19.0873 39.3984 19.0547C39.3199 19.0211 39.2394 18.9967 39.1569 18.9794C39.0734 18.9621 38.9899 18.954 38.9054 18.954C38.821 18.954 38.7375 18.9621 38.654 18.9794C38.5715 18.9967 38.491 19.0211 38.4124 19.0547C38.3349 19.0873 38.2604 19.128 38.1908 19.1759C38.1202 19.2237 38.0546 19.2787 37.995 19.3398C37.9353 19.4008 37.8817 19.468 37.8349 19.5393C37.7882 19.6115 37.7485 19.6879 37.7167 19.7673C37.6839 19.8477 37.659 19.9291 37.6431 20.0146C37.6262 20.0991 37.6183 20.1846 37.6183 20.2711C37.6183 20.3577 37.6262 20.4432 37.6431 20.5287C37.659 20.6132 37.6839 20.6956 37.7167 20.776C37.7485 20.8554 37.7882 20.9318 37.8349 21.003C37.8817 21.0753 37.9353 21.1415 37.995 21.2025C38.0546 21.2636 38.1202 21.3186 38.1908 21.3664C38.2604 21.4153 38.3349 21.455 38.4134 21.4886C38.491 21.5211 38.5715 21.5466 38.654 21.5639C38.7375 21.5802 38.821 21.5883 38.9054 21.5883ZM35.7347 18.2424C35.8132 18.2424 35.8908 18.2343 35.9663 18.219C36.0428 18.2038 36.1174 18.1804 36.19 18.1498C36.2615 18.1193 36.3301 18.0816 36.3947 18.0378C36.4593 17.9931 36.5199 17.9432 36.5746 17.8862C36.6303 17.8302 36.679 17.7681 36.7227 17.7019C36.7655 17.6358 36.8022 17.5655 36.8321 17.4922C36.8619 17.4179 36.8847 17.3426 36.8996 17.2642C36.9145 17.1858 36.9225 17.1075 36.9225 17.0271C36.9225 16.9477 36.9145 16.8683 36.8996 16.7899C36.8847 16.7115 36.8619 16.6362 36.8321 16.5619C36.8022 16.4886 36.7655 16.4183 36.7227 16.3522C36.679 16.286 36.6303 16.2249 36.5746 16.1679C36.5199 16.1119 36.4593 16.0611 36.3947 16.0173C36.3301 15.9725 36.2615 15.9348 36.19 15.9043C36.1174 15.8738 36.0428 15.8514 35.9663 15.8351C35.8908 15.8198 35.8132 15.8127 35.7347 15.8127C35.6572 15.8127 35.5797 15.8198 35.5031 15.8351C35.4266 15.8514 35.353 15.8738 35.2805 15.9043C35.2089 15.9348 35.1403 15.9725 35.0757 16.0173C35.0111 16.0611 34.9505 16.1119 34.8958 16.1679C34.8402 16.2249 34.7915 16.286 34.7477 16.3522C34.705 16.4183 34.6682 16.4886 34.6384 16.5619C34.6086 16.6362 34.5857 16.7115 34.5708 16.7899C34.5559 16.8683 34.5479 16.9477 34.5479 17.0271C34.5479 17.1075 34.5549 17.1858 34.5708 17.2642C34.5857 17.3426 34.6076 17.419 34.6374 17.4922C34.6672 17.5665 34.704 17.6358 34.7477 17.7029C34.7905 17.7691 34.8402 17.8302 34.8948 17.8872C34.9505 17.9432 35.0101 17.9931 35.0747 18.0378C35.1403 18.0826 35.2089 18.1193 35.2805 18.1498C35.353 18.1804 35.4266 18.2038 35.5031 18.219C35.5797 18.2343 35.6572 18.2424 35.7347 18.2424ZM32.565 14.8966C32.6366 14.8976 32.7071 14.8904 32.7777 14.8762C32.8473 14.8619 32.9159 14.8406 32.9815 14.8131C33.0481 14.7846 33.1107 14.751 33.1703 14.7103C33.2299 14.6696 33.2846 14.6227 33.3353 14.5718C33.386 14.5199 33.4307 14.4639 33.4705 14.4029C33.5102 14.3418 33.544 14.2777 33.5719 14.2105C33.5987 14.1423 33.6196 14.0731 33.6335 14.0008C33.6474 13.9295 33.6544 13.8573 33.6554 13.784C33.6554 13.7107 33.6484 13.6384 33.6345 13.5661C33.6206 13.4949 33.5997 13.4247 33.5719 13.3575C33.545 13.2893 33.5112 13.2251 33.4715 13.1651C33.4317 13.104 33.387 13.047 33.3363 12.9961C33.2856 12.9442 33.2309 12.8974 33.1713 12.8567C33.1117 12.8159 33.049 12.7823 32.9834 12.7538C32.9169 12.7253 32.8493 12.705 32.7787 12.6907C32.7091 12.6765 32.6385 12.6683 32.567 12.6683C32.4954 12.6683 32.4239 12.6755 32.3543 12.6897C32.2837 12.704 32.2161 12.7253 32.1495 12.7538C32.0839 12.7813 32.0213 12.8159 31.9617 12.8567C31.902 12.8974 31.8474 12.9432 31.7967 12.9951C31.746 13.047 31.7003 13.103 31.6615 13.1641C31.6217 13.2251 31.5879 13.2893 31.5601 13.3565C31.5333 13.4236 31.5124 13.4939 31.4985 13.5651C31.4846 13.6374 31.4776 13.7097 31.4776 13.783C31.4776 13.8562 31.4846 13.9285 31.4985 13.9998C31.5124 14.072 31.5333 14.1413 31.5601 14.2084C31.5879 14.2766 31.6207 14.3408 31.6605 14.4018C31.7003 14.4619 31.745 14.5189 31.7957 14.5698C31.8464 14.6217 31.901 14.6685 31.9607 14.7082C32.0203 14.749 32.0829 14.7836 32.1485 14.8121C32.2141 14.8396 32.2827 14.8609 32.3523 14.8752C32.4229 14.8894 32.4934 14.8966 32.565 14.8966ZM29.3943 11.5507C29.5255 11.5507 29.6507 11.5252 29.772 11.4733C29.8922 11.4224 29.9986 11.3491 30.091 11.2545C30.1835 11.1598 30.255 11.0509 30.3047 10.9277C30.3554 10.8035 30.3803 10.6753 30.3803 10.5419C30.3803 10.4075 30.3554 10.2793 30.3047 10.1551C30.255 10.0319 30.1835 9.92302 30.091 9.82836C29.9986 9.73369 29.8922 9.6604 29.772 9.6095C29.6507 9.55861 29.5255 9.53214 29.3943 9.53214C29.2641 9.53214 29.1378 9.55861 29.0166 9.6095C28.8963 9.6604 28.7899 9.73369 28.6975 9.82836C28.6051 9.92302 28.5335 10.0319 28.4838 10.1551C28.4331 10.2793 28.4083 10.4075 28.4083 10.5419C28.4083 10.6753 28.4331 10.8035 28.4838 10.9277C28.5335 11.0509 28.6051 11.1598 28.6975 11.2545C28.7899 11.3491 28.8963 11.4224 29.0166 11.4733C29.1378 11.5252 29.2641 11.5507 29.3943 11.5507ZM26.2235 8.20376C26.3418 8.20376 26.4551 8.18035 26.5645 8.13454C26.6728 8.08874 26.7692 8.02257 26.8527 7.93707C26.9352 7.85258 26.9998 7.75384 27.0446 7.64187C27.0903 7.53092 27.1121 7.41488 27.1121 7.29476C27.1121 7.17363 27.0903 7.05759 27.0446 6.94664C26.9998 6.83467 26.9352 6.73695 26.8527 6.65144C26.7692 6.56594 26.6728 6.50079 26.5645 6.45397C26.4551 6.40816 26.3418 6.38475 26.2235 6.38475C26.1063 6.38475 25.993 6.40816 25.8836 6.45397C25.7753 6.50079 25.6789 6.56594 25.5954 6.65144C25.5119 6.73695 25.4483 6.83467 25.4025 6.94664C25.3578 7.05759 25.3349 7.17363 25.3349 7.29476C25.3349 7.41488 25.3578 7.53092 25.4025 7.64289C25.4473 7.75384 25.5119 7.85258 25.5954 7.93809C25.6789 8.02359 25.7743 8.08874 25.8836 8.13454C25.993 8.18137 26.1063 8.20376 26.2235 8.20376ZM23.0538 4.85686C23.1582 4.85686 23.2596 4.8365 23.356 4.79578C23.4534 4.75507 23.5389 4.69704 23.6134 4.6207C23.687 4.54538 23.7446 4.45783 23.7844 4.3591C23.8251 4.25934 23.845 4.15653 23.845 4.04863C23.845 3.94175 23.8251 3.83894 23.7854 3.73919C23.7446 3.64045 23.688 3.55291 23.6134 3.47656C23.5399 3.40124 23.4544 3.3422 23.357 3.30148C23.2606 3.26077 23.1592 3.24041 23.0548 3.24041C22.9495 3.24041 22.8491 3.26077 22.7517 3.30148C22.6552 3.34322 22.5698 3.40124 22.4952 3.47758C22.4217 3.55393 22.364 3.64147 22.3243 3.7402C22.2845 3.83996 22.2646 3.94277 22.2646 4.04965C22.2646 4.15653 22.2855 4.26036 22.3252 4.3591C22.365 4.45783 22.4227 4.54436 22.4962 4.6207C22.5698 4.69603 22.6552 4.75405 22.7517 4.79578C22.8481 4.8365 22.9485 4.85686 23.0538 4.85686ZM19.8841 1.51199C19.9755 1.51199 20.064 1.49366 20.1485 1.45804C20.233 1.42241 20.3075 1.37152 20.3731 1.30535C20.4377 1.23919 20.4874 1.16182 20.5222 1.0753C20.557 0.988779 20.5749 0.899203 20.5749 0.805554C20.5749 0.711906 20.557 0.621312 20.5222 0.534789C20.4864 0.448266 20.4367 0.371923 20.3721 0.305758C20.3075 0.239593 20.232 0.188698 20.1475 0.153071C20.063 0.117444 19.9755 0.0991211 19.8831 0.0991211C19.7917 0.100139 19.7042 0.117444 19.6197 0.154089C19.5352 0.189716 19.4607 0.240611 19.3961 0.306776C19.3315 0.373958 19.2808 0.450302 19.246 0.536825C19.2112 0.623347 19.1943 0.713942 19.1943 0.80759C19.1943 0.901238 19.2122 0.990815 19.247 1.07734C19.2818 1.16386 19.3315 1.2402 19.3961 1.30637C19.4617 1.37253 19.5362 1.42343 19.6207 1.45906C19.7052 1.49468 19.7926 1.51199 19.8841 1.51199Z" fill="white"/>
</mask>
<g mask="url(#mask0_2_651)">
<path d="M0.0566406 0.0991211L0.0566406 59.9078H50.001L50.001 0.0991211L0.0566406 0.0991211Z" fill="#FF322E"/>
</g>
</svg>
