<svg width="22" height="20" viewBox="0 0 22 20" fill="none" xmlns="http://www.w3.org/2000/svg">
<mask id="mask0_2_1153" style="mask-type:luminance" maskUnits="userSpaceOnUse" x="4" y="0" width="18" height="17">
<path d="M4.02734 0H21.2703V16.3557H4.02734V0Z" fill="white"/>
</mask>
<g mask="url(#mask0_2_1153)">
<path d="M4.08887 9.41662C4.11159 9.15235 4.2217 8.91883 4.38391 8.7056C4.95406 7.95472 6.23209 7.61039 7.12629 8.16446C7.65309 8.49061 8.07537 8.91079 8.42704 9.40753C8.71893 9.82003 8.98251 10.2531 9.26671 10.6891C9.46492 10.407 9.66487 10.1175 9.87007 9.83121C11.6316 7.37373 13.5654 5.06656 15.8086 3.03276C17.1848 1.78549 18.7639 0.858778 20.4628 0.125728C20.7564 -0.0011664 21.0015 0.0484727 21.2531 0.30331C21.1381 0.411327 21.0231 0.517946 20.9092 0.625614C19.4256 2.02949 17.9738 3.46588 16.6559 5.02776C15.9019 5.92126 15.2028 6.86126 14.4834 7.78378C13.0347 9.64175 11.9504 11.7318 10.7192 13.7282C10.2441 14.4994 9.77289 15.273 9.29712 16.0434C9.10801 16.3497 8.85911 16.3455 8.66929 16.0323C8.05335 15.0167 7.5678 13.9376 7.10916 12.8442C6.72603 11.9314 6.29536 11.0407 5.74898 10.2112C5.47841 9.80115 5.15995 9.46381 4.6363 9.41872C4.45941 9.40404 4.27973 9.41662 4.08887 9.41662Z" fill="#FF322E"/>
</g>
<mask id="mask1_2_1153" style="mask-type:luminance" maskUnits="userSpaceOnUse" x="0" y="1" width="19" height="19">
<path d="M0 1.41089H18.614V20H0V1.41089Z" fill="white"/>
</mask>
<g mask="url(#mask1_2_1153)">
<path d="M17.412 5.82198L15.9689 7.26816C16.386 8.19032 16.617 9.21387 16.617 10.2919C16.617 14.3526 13.3328 17.6434 9.2806 17.6434C5.22803 17.6434 1.94381 14.3526 1.94381 10.2919C1.94381 6.23168 5.22803 2.94082 9.2806 2.94082C10.2937 2.94082 11.2578 3.14671 12.1352 3.51831L13.5891 2.06165C12.3019 1.38348 10.8355 1 9.2806 1C4.15869 1 0.00683594 5.16024 0.00683594 10.2919C0.00683594 15.424 4.15869 19.5839 9.2806 19.5839C14.4022 19.5839 18.554 15.4236 18.554 10.2916C18.554 8.67168 18.1401 7.1479 17.412 5.82198Z" fill="#FF322E"/>
</g>
</svg>
